<svg width="395" height="424" viewBox="0 0 395 424" fill="none"
    xmlns="http://www.w3.org/2000/svg">
    <mask id="mask0" mask-type="alpha" maskUnits="userSpaceOnUse" x="0" y="0" width="395" height="424">
        <rect width="395" height="424" fill="#F68633"/>
    </mask>
    <g mask="url(#mask0)">
        <rect opacity="0.2" width="395" height="424" fill="#F68633"/>
        <mask id="mask1" mask-type="alpha" maskUnits="userSpaceOnUse" x="0" y="-91" width="242" height="226">
            <rect y="-91" width="241.27" height="226" fill="#C4C4C4"/>
        </mask>
        <g mask="url(#mask1)">
            <g opacity="0.6">
                <path d="M214.399 152.209H220.151V128.653H214.399V152.209Z" fill="#FFDA68"/>
                <path d="M185.177 152.209H190.929V128.653H185.177V152.209Z" fill="#FFDA68"/>
                <path d="M142.013 152.209H147.765V128.653H142.013V152.209Z" fill="#FFDA68"/>
                <path d="M214.399 118.661H220.151V95.1041H214.399V118.661Z" fill="#FFDA68"/>
                <path d="M171.235 118.661H176.987V95.1041H171.235V118.661Z" fill="#FFDA68"/>
                <path d="M199.788 118.661H205.54V95.1041H199.788V118.661Z" fill="#FFDA68"/>
                <path d="M156.624 118.661H162.376V95.1041H156.624V118.661Z" fill="#FFDA68"/>
                <path d="M199.788 85.1226H205.54V61.566H199.788V85.1226Z" fill="#FFDA68"/>
                <path d="M156.624 85.1226H162.376V61.566H156.624V85.1226Z" fill="#FFDA68"/>
                <path d="M185.177 85.1226H190.929V61.566H185.177V85.1226Z" fill="#FFDA68"/>
                <path d="M231.578 85.1226H237.33V61.566H231.578V85.1226Z" fill="#FFDA68"/>
                <path d="M142.013 85.1226H147.765V61.566H142.013V85.1226Z" fill="#FFDA68"/>
                <path d="M214.399 51.563H220.151V28.0064H214.399V51.563Z" fill="#FFDA68"/>
                <path d="M171.235 51.563H176.987V28.0064H171.235V51.563Z" fill="#FFDA68"/>
                <path d="M185.177 51.563H190.929V28.0064H185.177V51.563Z" fill="#FFDA68"/>
                <path d="M231.578 51.563H237.33V28.0064H231.578V51.563Z" fill="#FFDA68"/>
                <path d="M142.013 51.563H147.765V28.0064H142.013V51.563Z" fill="#FFDA68"/>
                <path d="M214.399 18.0244H220.151V-5.53216H214.399V18.0244Z" fill="#FFDA68"/>
                <path d="M171.235 18.0244H176.987V-5.53216H171.235V18.0244Z" fill="#FFDA68"/>
                <path d="M199.788 18.0244H205.54V-5.53216H199.788V18.0244Z" fill="#FFDA68"/>
                <path d="M156.624 18.0244H162.376V-5.53216H156.624V18.0244Z" fill="#FFDA68"/>
            </g>
            <g opacity="0.6">
                <path d="M66.9371 132.46H72.6887V108.904H66.9371V132.46Z" fill="#FFDA68"/>
                <path d="M113.337 132.46H119.089V108.904H113.337V132.46Z" fill="#FFDA68"/>
                <path d="M23.7733 132.46H29.5249L29.5249 108.904H23.7733L23.7733 132.46Z" fill="#FFDA68"/>
                <path d="M52.3261 132.46H58.0776V108.904H52.3261V132.46Z" fill="#FFDA68"/>
                <path d="M98.7272 132.46H104.479V108.904H98.7272V132.46Z" fill="#FFDA68"/>
                <path d="M9.16203 132.46H14.9136L14.9136 108.904H9.16203L9.16203 132.46Z" fill="#FFDA68"/>
                <path d="M81.5482 98.9004H87.2998V75.3438H81.5482V98.9004Z" fill="#FFDA68"/>
                <path d="M127.948 98.9004H133.7V75.3438H127.948V98.9004Z" fill="#FFDA68"/>
                <path d="M38.3844 98.9004H44.136V75.3438H38.3844V98.9004Z" fill="#FFDA68"/>
                <path d="M52.3261 98.9004H58.0776V75.3438H52.3261V98.9004Z" fill="#FFDA68"/>
                <path d="M98.7272 98.9004H104.479V75.3438H98.7272V98.9004Z" fill="#FFDA68"/>
                <path d="M9.16203 98.9004H14.9136L14.9136 75.3438H9.16203L9.16203 98.9004Z" fill="#FFDA68"/>
                <path d="M81.5482 65.3623H87.2998V41.8057H81.5482V65.3623Z" fill="#FFDA68"/>
                <path d="M127.948 65.3623H133.7V41.8057H127.948V65.3623Z" fill="#FFDA68"/>
                <path d="M38.3844 65.3623H44.136V41.8057H38.3844V65.3623Z" fill="#FFDA68"/>
                <path d="M66.9371 65.3623H72.6887V41.8057H66.9371V65.3623Z" fill="#FFDA68"/>
                <path d="M113.337 65.3623H119.089V41.8057H113.337V65.3623Z" fill="#FFDA68"/>
                <path d="M23.7733 65.3623H29.5249L29.5249 41.8057H23.7733L23.7733 65.3623Z" fill="#FFDA68"/>
                <path d="M127.948 31.8135H133.7V8.2569H127.948V31.8135Z" fill="#FFDA68"/>
                <path d="M113.337 31.8135H119.089V8.2569H113.337V31.8135Z" fill="#FFDA68"/>
                <path d="M23.7733 31.8135H29.5249L29.5249 8.2569H23.7733L23.7733 31.8135Z" fill="#FFDA68"/>
                <path d="M52.3261 31.8135H58.0776V8.2569H52.3261V31.8135Z" fill="#FFDA68"/>
                <path d="M9.16203 31.8135H14.9136L14.9136 8.2569H9.16203L9.16203 31.8135Z" fill="#FFDA68"/>
            </g>
        </g>
        <mask id="mask2" mask-type="alpha" maskUnits="userSpaceOnUse" x="248" y="-89" width="242" height="226">
            <rect x="248" y="-89" width="241.27" height="226" fill="#C4C4C4"/>
        </mask>
        <g mask="url(#mask2)">
            <g opacity="0.6">
                <path d="M390.013 154.209H395.765V130.653H390.013V154.209Z" fill="#FFDA68"/>
                <path d="M390.013 87.1226H395.765V63.566H390.013V87.1226Z" fill="#FFDA68"/>
                <path d="M390.013 53.563H395.765V30.0064H390.013V53.563Z" fill="#FFDA68"/>
            </g>
            <g opacity="0.6">
                <path d="M314.937 134.46H320.689V110.904H314.937V134.46Z" fill="#FFDA68"/>
                <path d="M361.337 134.46H367.089V110.904H361.337V134.46Z" fill="#FFDA68"/>
                <path d="M271.773 134.46H277.525V110.904H271.773V134.46Z" fill="#FFDA68"/>
                <path d="M300.326 134.46H306.078V110.904H300.326V134.46Z" fill="#FFDA68"/>
                <path d="M346.727 134.46H352.479V110.904H346.727V134.46Z" fill="#FFDA68"/>
                <path d="M257.162 134.46H262.914V110.904H257.162V134.46Z" fill="#FFDA68"/>
                <path d="M329.548 100.9H335.3V77.3438H329.548V100.9Z" fill="#FFDA68"/>
                <path d="M375.948 100.9H381.7V77.3438H375.948V100.9Z" fill="#FFDA68"/>
                <path d="M286.384 100.9H292.136V77.3438H286.384V100.9Z" fill="#FFDA68"/>
                <path d="M300.326 100.9H306.078V77.3438H300.326V100.9Z" fill="#FFDA68"/>
                <path d="M346.727 100.9H352.479V77.3438H346.727V100.9Z" fill="#FFDA68"/>
                <path d="M257.162 100.9H262.914V77.3438H257.162V100.9Z" fill="#FFDA68"/>
                <path d="M329.548 67.3623H335.3V43.8057H329.548V67.3623Z" fill="#FFDA68"/>
                <path d="M375.948 67.3623H381.7V43.8057H375.948V67.3623Z" fill="#FFDA68"/>
                <path d="M286.384 67.3623H292.136V43.8057H286.384V67.3623Z" fill="#FFDA68"/>
                <path d="M314.937 67.3623H320.689V43.8057H314.937V67.3623Z" fill="#FFDA68"/>
                <path d="M361.337 67.3623H367.089V43.8057H361.337V67.3623Z" fill="#FFDA68"/>
                <path d="M271.773 67.3623H277.525V43.8057H271.773V67.3623Z" fill="#FFDA68"/>
                <path d="M375.948 33.8135H381.7V10.2569H375.948V33.8135Z" fill="#FFDA68"/>
                <path d="M361.337 33.8135H367.089V10.2569H361.337V33.8135Z" fill="#FFDA68"/>
                <path d="M271.773 33.8135H277.525V10.2569H271.773V33.8135Z" fill="#FFDA68"/>
                <path d="M300.326 33.8135H306.078V10.2569H300.326V33.8135Z" fill="#FFDA68"/>
                <path d="M257.162 33.8135H262.914V10.2569H257.162V33.8135Z" fill="#FFDA68"/>
            </g>
        </g>
        <mask id="mask3" mask-type="alpha" maskUnits="userSpaceOnUse" x="-15" y="134" width="242" height="226">
            <rect x="-15" y="134" width="241.27" height="226" fill="#C4C4C4"/>
        </mask>
        <g mask="url(#mask3)">
            <g opacity="0.6">
                <path d="M199.399 377.209H205.151V353.653H199.399V377.209Z" fill="#FFDA68"/>
                <path d="M170.177 377.209H175.929V353.653H170.177V377.209Z" fill="#FFDA68"/>
                <path d="M127.013 377.209H132.765V353.653H127.013V377.209Z" fill="#FFDA68"/>
                <path d="M199.399 343.661H205.151V320.104H199.399V343.661Z" fill="#FFDA68"/>
                <path d="M156.235 343.661H161.987V320.104H156.235V343.661Z" fill="#FFDA68"/>
                <path d="M184.788 343.661H190.54V320.104H184.788V343.661Z" fill="#FFDA68"/>
                <path d="M141.624 343.661H147.376V320.104H141.624V343.661Z" fill="#FFDA68"/>
                <path d="M184.788 310.123H190.54V286.566H184.788V310.123Z" fill="#FFDA68"/>
                <path d="M141.624 310.123H147.376V286.566H141.624V310.123Z" fill="#FFDA68"/>
                <path d="M170.177 310.123H175.929V286.566H170.177V310.123Z" fill="#FFDA68"/>
                <path d="M216.578 310.123H222.33V286.566H216.578V310.123Z" fill="#FFDA68"/>
                <path d="M127.013 310.123H132.765V286.566H127.013V310.123Z" fill="#FFDA68"/>
                <path d="M199.399 276.563H205.151V253.006H199.399V276.563Z" fill="#FFDA68"/>
                <path d="M156.235 276.563H161.987V253.006H156.235V276.563Z" fill="#FFDA68"/>
                <path d="M170.177 276.563H175.929V253.006H170.177V276.563Z" fill="#FFDA68"/>
                <path d="M216.578 276.563H222.33V253.006H216.578V276.563Z" fill="#FFDA68"/>
                <path d="M127.013 276.563H132.765V253.006H127.013V276.563Z" fill="#FFDA68"/>
                <path d="M199.399 243.024H205.151V219.468H199.399V243.024Z" fill="#FFDA68"/>
                <path d="M156.235 243.024H161.987V219.468H156.235V243.024Z" fill="#FFDA68"/>
                <path d="M184.788 243.024H190.54V219.468H184.788V243.024Z" fill="#FFDA68"/>
                <path d="M141.624 243.024H147.376V219.468H141.624V243.024Z" fill="#FFDA68"/>
                <path d="M141.624 209.476H147.376V185.919H141.624V209.476Z" fill="#FFDA68"/>
                <path d="M170.177 209.476H175.929V185.919H170.177V209.476Z" fill="#FFDA68"/>
                <path d="M127.013 209.476H132.765V185.919H127.013V209.476Z" fill="#FFDA68"/>
            </g>
            <g opacity="0.6">
                <path d="M51.9371 357.46H57.6887V333.904H51.9371V357.46Z" fill="#FFDA68"/>
                <path d="M98.337 357.46H104.089V333.904H98.337V357.46Z" fill="#FFDA68"/>
                <path d="M8.77332 357.46H14.5249L14.5249 333.904H8.77332L8.77332 357.46Z" fill="#FFDA68"/>
                <path d="M37.3261 357.46H43.0776V333.904H37.3261V357.46Z" fill="#FFDA68"/>
                <path d="M83.7272 357.46H89.4788V333.904H83.7272V357.46Z" fill="#FFDA68"/>
                <path d="M66.5482 323.9H72.2998V300.344H66.5482V323.9Z" fill="#FFDA68"/>
                <path d="M112.948 323.9H118.7V300.344H112.948V323.9Z" fill="#FFDA68"/>
                <path d="M23.3844 323.9H29.136L29.136 300.344H23.3844L23.3844 323.9Z" fill="#FFDA68"/>
                <path d="M37.3261 323.9H43.0776V300.344H37.3261V323.9Z" fill="#FFDA68"/>
                <path d="M83.7272 323.9H89.4788V300.344H83.7272V323.9Z" fill="#FFDA68"/>
                <path d="M66.5482 290.362H72.2998V266.806H66.5482V290.362Z" fill="#FFDA68"/>
                <path d="M112.948 290.362H118.7V266.806H112.948V290.362Z" fill="#FFDA68"/>
                <path d="M23.3844 290.362H29.136L29.136 266.806H23.3844L23.3844 290.362Z" fill="#FFDA68"/>
                <path d="M51.9371 290.362H57.6887V266.806H51.9371V290.362Z" fill="#FFDA68"/>
                <path d="M98.337 290.362H104.089V266.806H98.337V290.362Z" fill="#FFDA68"/>
                <path d="M8.77332 290.362H14.5249L14.5249 266.806H8.77332L8.77332 290.362Z" fill="#FFDA68"/>
                <path d="M112.948 256.813H118.7V233.257H112.948V256.813Z" fill="#FFDA68"/>
                <path d="M98.337 256.813H104.089V233.257H98.337V256.813Z" fill="#FFDA68"/>
                <path d="M8.77332 256.813H14.5249L14.5249 233.257H8.77332L8.77332 256.813Z" fill="#FFDA68"/>
                <path d="M37.3261 256.813H43.0776V233.257H37.3261V256.813Z" fill="#FFDA68"/>
            </g>
        </g>
        <mask id="mask4" mask-type="alpha" maskUnits="userSpaceOnUse" x="189" y="113" width="242" height="226">
            <rect x="189" y="113" width="241.27" height="226" fill="#C4C4C4"/>
        </mask>
        <g mask="url(#mask4)">
            <g opacity="0.6">
                <path d="M374.177 356.209H379.929V332.653H374.177V356.209Z" fill="#FFDA68"/>
                <path d="M331.013 356.209H336.765V332.653H331.013V356.209Z" fill="#FFDA68"/>
                <path d="M360.235 322.661H365.987V299.104H360.235V322.661Z" fill="#FFDA68"/>
                <path d="M388.788 322.661H394.54V299.104H388.788V322.661Z" fill="#FFDA68"/>
                <path d="M345.624 322.661H351.376V299.104H345.624V322.661Z" fill="#FFDA68"/>
                <path d="M388.788 289.123H394.54V265.566H388.788V289.123Z" fill="#FFDA68"/>
                <path d="M345.624 289.123H351.376V265.566H345.624V289.123Z" fill="#FFDA68"/>
                <path d="M374.177 289.123H379.929V265.566H374.177V289.123Z" fill="#FFDA68"/>
                <path d="M331.013 289.123H336.765V265.566H331.013V289.123Z" fill="#FFDA68"/>
                <path d="M360.235 255.563H365.987V232.006H360.235V255.563Z" fill="#FFDA68"/>
                <path d="M374.177 255.563H379.929V232.006H374.177V255.563Z" fill="#FFDA68"/>
                <path d="M331.013 255.563H336.765V232.006H331.013V255.563Z" fill="#FFDA68"/>
                <path d="M360.235 222.024H365.987V198.468H360.235V222.024Z" fill="#FFDA68"/>
                <path d="M388.788 222.024H394.54V198.468H388.788V222.024Z" fill="#FFDA68"/>
                <path d="M345.624 222.024H351.376V198.468H345.624V222.024Z" fill="#FFDA68"/>
                <path d="M345.624 188.476H351.376V164.919H345.624V188.476Z" fill="#FFDA68"/>
                <path d="M374.177 188.476H379.929V164.919H374.177V188.476Z" fill="#FFDA68"/>
                <path d="M331.013 188.476H336.765V164.919H331.013V188.476Z" fill="#FFDA68"/>
            </g>
            <g opacity="0.6">
                <path d="M255.937 336.46H261.689V312.904H255.937V336.46Z" fill="#FFDA68"/>
                <path d="M302.337 336.46H308.089V312.904H302.337V336.46Z" fill="#FFDA68"/>
                <path d="M212.773 336.46H218.525V312.904H212.773V336.46Z" fill="#FFDA68"/>
                <path d="M241.326 336.46H247.078V312.904H241.326V336.46Z" fill="#FFDA68"/>
                <path d="M287.727 336.46H293.479V312.904H287.727V336.46Z" fill="#FFDA68"/>
                <path d="M198.162 336.46H203.914V312.904H198.162V336.46Z" fill="#FFDA68"/>
                <path d="M270.548 302.9H276.3V279.344H270.548V302.9Z" fill="#FFDA68"/>
                <path d="M316.948 302.9H322.7V279.344H316.948V302.9Z" fill="#FFDA68"/>
                <path d="M227.384 302.9H233.136V279.344H227.384V302.9Z" fill="#FFDA68"/>
                <path d="M241.326 302.9H247.078V279.344H241.326V302.9Z" fill="#FFDA68"/>
                <path d="M287.727 302.9H293.479V279.344H287.727V302.9Z" fill="#FFDA68"/>
                <path d="M198.162 302.9H203.914V279.344H198.162V302.9Z" fill="#FFDA68"/>
                <path d="M270.548 269.362H276.3V245.806H270.548V269.362Z" fill="#FFDA68"/>
                <path d="M316.948 269.362H322.7V245.806H316.948V269.362Z" fill="#FFDA68"/>
                <path d="M227.384 269.362H233.136V245.806H227.384V269.362Z" fill="#FFDA68"/>
                <path d="M255.937 269.362H261.689V245.806H255.937V269.362Z" fill="#FFDA68"/>
                <path d="M302.337 269.362H308.089V245.806H302.337V269.362Z" fill="#FFDA68"/>
                <path d="M212.773 269.362H218.525V245.806H212.773V269.362Z" fill="#FFDA68"/>
                <path d="M316.948 235.813H322.7V212.257H316.948V235.813Z" fill="#FFDA68"/>
                <path d="M302.337 235.813H308.089V212.257H302.337V235.813Z" fill="#FFDA68"/>
                <path d="M212.773 235.813H218.525V212.257H212.773V235.813Z" fill="#FFDA68"/>
                <path d="M241.326 235.813H247.078V212.257H241.326V235.813Z" fill="#FFDA68"/>
                <path d="M198.162 235.813H203.914V212.257H198.162V235.813Z" fill="#FFDA68"/>
            </g>
        </g>
        <mask id="mask5" mask-type="alpha" maskUnits="userSpaceOnUse" x="181" y="300" width="242" height="226">
            <rect x="181" y="300" width="241.27" height="226" fill="#C4C4C4"/>
        </mask>
        <g mask="url(#mask5)">
            <g opacity="0.6">
                <path d="M352.235 442.563H357.987V419.006H352.235V442.563Z" fill="#FFDA68"/>
                <path d="M366.177 442.563H371.929V419.006H366.177V442.563Z" fill="#FFDA68"/>
                <path d="M323.013 442.563H328.765V419.006H323.013V442.563Z" fill="#FFDA68"/>
                <path d="M352.235 409.024H357.987V385.468H352.235V409.024Z" fill="#FFDA68"/>
                <path d="M380.788 409.024H386.54V385.468H380.788V409.024Z" fill="#FFDA68"/>
                <path d="M337.624 409.024H343.376V385.468H337.624V409.024Z" fill="#FFDA68"/>
                <path d="M337.624 375.476H343.376V351.919H337.624V375.476Z" fill="#FFDA68"/>
                <path d="M366.177 375.476H371.929V351.919H366.177V375.476Z" fill="#FFDA68"/>
                <path d="M323.013 375.476H328.765V351.919H323.013V375.476Z" fill="#FFDA68"/>
            </g>
            <g opacity="0.6">
                <path d="M308.948 422.813H314.7V399.257H308.948V422.813Z" fill="#FFDA68"/>
                <path d="M294.337 422.813H300.089V399.257H294.337V422.813Z" fill="#FFDA68"/>
                <path d="M204.773 422.813H210.525V399.257H204.773V422.813Z" fill="#FFDA68"/>
                <path d="M233.326 422.813H239.078V399.257H233.326V422.813Z" fill="#FFDA68"/>
                <path d="M190.162 422.813H195.914V399.257H190.162V422.813Z" fill="#FFDA68"/>
            </g>
        </g>
    </g>
</svg>
