<svg width="607" height="692" viewBox="0 0 607 692" fill="none"
    xmlns="http://www.w3.org/2000/svg">
    <path fill-rule="evenodd" clip-rule="evenodd" d="M344.37 0C199.59 0 82.2215 117.368 82.2215 262.149C82.2215 307.295 93.6338 349.776 113.731 386.864C117.089 393.062 113.565 400.946 106.787 402.883C45.1324 420.503 0 477.274 0 544.586C0 625.97 65.9747 691.945 147.359 691.945C228.743 691.945 294.717 625.97 294.717 544.586C294.717 540.912 294.583 537.27 294.319 533.663C293.805 526.652 299.968 520.649 306.927 521.644C319.156 523.393 331.658 524.298 344.37 524.298C489.151 524.298 606.519 406.93 606.519 262.149C606.519 117.368 489.151 0 344.37 0Z" fill="#231F20"/>
</svg>
