<svg width="116" height="178" viewBox="0 0 116 178" fill="none"
    xmlns="http://www.w3.org/2000/svg">
    <g opacity="0.6">
        <path d="M67.0801 177.27H72.4102V155.44H67.0801V177.27Z" fill="#D6D6D6"/>
        <path d="M40.0001 177.27H45.3301V155.44H40.0001V177.27Z" fill="#D6D6D6"/>
        <path d="M9.15527e-05 177.27H5.33008L5.33008 155.44H9.15527e-05L9.15527e-05 177.27Z" fill="#D6D6D6"/>
        <path d="M67.0801 146.18H72.4102V124.35H67.0801V146.18Z" fill="#D6D6D6"/>
        <path d="M110.08 146.18H115.41V124.35H110.08V146.18Z" fill="#D6D6D6"/>
        <path d="M27.0801 146.18H32.4102V124.35H27.0801L27.0801 146.18Z" fill="#D6D6D6"/>
        <path d="M53.5391 146.18H58.8691V124.35H53.5391V146.18Z" fill="#D6D6D6"/>
        <path d="M96.5391 146.18H101.869V124.35H96.5391V146.18Z" fill="#D6D6D6"/>
        <path d="M13.5391 146.18H18.8691L18.8691 124.35H13.5391L13.5391 146.18Z" fill="#D6D6D6"/>
        <path d="M53.5391 115.1H58.8691V93.27H53.5391V115.1Z" fill="#D6D6D6"/>
        <path d="M96.5391 115.1H101.869V93.27H96.5391V115.1Z" fill="#D6D6D6"/>
        <path d="M13.5391 115.1H18.8691L18.8691 93.27H13.5391L13.5391 115.1Z" fill="#D6D6D6"/>
        <path d="M40.0001 115.1H45.3301V93.27H40.0001V115.1Z" fill="#D6D6D6"/>
        <path d="M83.0001 115.1H88.3301V93.27H83.0001V115.1Z" fill="#D6D6D6"/>
        <path d="M9.15527e-05 115.1H5.33008L5.33008 93.27H9.15527e-05L9.15527e-05 115.1Z" fill="#D6D6D6"/>
        <path d="M67.0801 83.9999H72.4102V62.1699H67.0801V83.9999Z" fill="#D6D6D6"/>
        <path d="M110.08 83.9999H115.41V62.1699H110.08V83.9999Z" fill="#D6D6D6"/>
        <path d="M27.0801 83.9999H32.4102V62.1699H27.0801L27.0801 83.9999Z" fill="#D6D6D6"/>
        <path d="M40.0001 83.9999H45.3301V62.1699H40.0001V83.9999Z" fill="#D6D6D6"/>
        <path d="M83.0001 83.9999H88.3301V62.1699H83.0001V83.9999Z" fill="#D6D6D6"/>
        <path d="M9.15527e-05 83.9999H5.33008L5.33008 62.1699H9.15527e-05L9.15527e-05 83.9999Z" fill="#D6D6D6"/>
        <path d="M67.0801 52.9198H72.4102V31.0898H67.0801V52.9198Z" fill="#D6D6D6"/>
        <path d="M110.08 52.9198H115.41V31.0898H110.08V52.9198Z" fill="#D6D6D6"/>
        <path d="M27.0801 52.9198H32.4102V31.0898H27.0801L27.0801 52.9198Z" fill="#D6D6D6"/>
        <path d="M53.5391 52.9198H58.8691V31.0898H53.5391V52.9198Z" fill="#D6D6D6"/>
        <path d="M96.5391 52.9198H101.869V31.0898H96.5391V52.9198Z" fill="#D6D6D6"/>
        <path d="M13.5391 52.9198H18.8691L18.8691 31.0898H13.5391L13.5391 52.9198Z" fill="#D6D6D6"/>
        <path d="M110.08 21.83H115.41V-4.3869e-05H110.08V21.83Z" fill="#D6D6D6"/>
        <path d="M96.5391 21.83H101.869V-4.3869e-05H96.5391V21.83Z" fill="#D6D6D6"/>
        <path d="M13.5391 21.83H18.8691L18.8691 -4.3869e-05H13.5391L13.5391 21.83Z" fill="#D6D6D6"/>
        <path d="M40.0001 21.83H45.3301V-4.3869e-05H40.0001V21.83Z" fill="#D6D6D6"/>
        <path d="M9.15527e-05 21.83H5.33008L5.33008 -4.3869e-05H9.15527e-05L9.15527e-05 21.83Z" fill="#D6D6D6"/>
    </g>
</svg>
