<svg width="125" height="192" viewBox="0 0 125 192" fill="none"
    xmlns="http://www.w3.org/2000/svg">
    <g opacity="0.6">
        <path d="M72.3861 191.291H78.1377V167.734H72.3861V191.291Z" fill="#FFDA68"/>
        <path d="M43.1635 191.291H48.915V167.734H43.1635V191.291Z" fill="#FFDA68"/>
        <path d="M0.000406265 191.291H5.75195L5.75195 167.734H0.000406265L0.000406265 191.291Z" fill="#FFDA68"/>
        <path d="M72.3861 157.742H78.1377V134.185H72.3861V157.742Z" fill="#FFDA68"/>
        <path d="M118.786 157.742H124.537V134.185H118.786V157.742Z" fill="#FFDA68"/>
        <path d="M29.2221 157.742H34.9736V134.185H29.2221L29.2221 157.742Z" fill="#FFDA68"/>
        <path d="M57.7748 157.742H63.5264V134.185H57.7748V157.742Z" fill="#FFDA68"/>
        <path d="M104.175 157.742H109.927V134.185H104.175V157.742Z" fill="#FFDA68"/>
        <path d="M14.6107 157.742H20.3623L20.3623 134.185H14.6107L14.6107 157.742Z" fill="#FFDA68"/>
        <path d="M57.7748 124.204H63.5264V100.647H57.7748V124.204Z" fill="#FFDA68"/>
        <path d="M104.175 124.204H109.927V100.647H104.175V124.204Z" fill="#FFDA68"/>
        <path d="M14.6107 124.204H20.3623L20.3623 100.647H14.6107L14.6107 124.204Z" fill="#FFDA68"/>
        <path d="M43.1635 124.204H48.915V100.647H43.1635V124.204Z" fill="#FFDA68"/>
        <path d="M89.5649 124.204H95.3164V100.647H89.5649V124.204Z" fill="#FFDA68"/>
        <path d="M0.000406265 124.204H5.75195L5.75195 100.647H0.000406265L0.000406265 124.204Z" fill="#FFDA68"/>
        <path d="M72.3861 90.644H78.1377V67.0875H72.3861V90.644Z" fill="#FFDA68"/>
        <path d="M118.786 90.644H124.537V67.0875H118.786V90.644Z" fill="#FFDA68"/>
        <path d="M29.2221 90.644H34.9736V67.0875H29.2221L29.2221 90.644Z" fill="#FFDA68"/>
        <path d="M43.1635 90.644H48.915V67.0875H43.1635V90.644Z" fill="#FFDA68"/>
        <path d="M89.5649 90.644H95.3164V67.0875H89.5649V90.644Z" fill="#FFDA68"/>
        <path d="M0.000406265 90.644H5.75195L5.75195 67.0875H0.000406265L0.000406265 90.644Z" fill="#FFDA68"/>
        <path d="M72.3861 57.1055H78.1377V33.5489H72.3861V57.1055Z" fill="#FFDA68"/>
        <path d="M29.2221 57.1055H34.9736V33.5489H29.2221L29.2221 57.1055Z" fill="#FFDA68"/>
        <path d="M57.7748 57.1055H63.5264V33.5489H57.7748V57.1055Z" fill="#FFDA68"/>
        <path d="M104.175 57.1055H109.927V33.5489H104.175V57.1055Z" fill="#FFDA68"/>
        <path d="M14.6107 57.1055H20.3623L20.3623 33.5489H14.6107L14.6107 57.1055Z" fill="#FFDA68"/>
        <path d="M14.6107 23.5566H20.3623L20.3623 6.10352e-05H14.6107L14.6107 23.5566Z" fill="#FFDA68"/>
        <path d="M43.1635 23.5566H48.915V6.10352e-05H43.1635V23.5566Z" fill="#FFDA68"/>
        <path d="M0.000406265 23.5566H5.75195L5.75195 6.10352e-05H0.000406265L0.000406265 23.5566Z" fill="#FFDA68"/>
    </g>
</svg>
