<svg width="158" height="148" viewBox="0 0 158 148" fill="none"
    xmlns="http://www.w3.org/2000/svg">
    <mask id="mask0" mask-type="alpha" maskUnits="userSpaceOnUse" x="0" y="0" width="158" height="148">
        <rect width="158" height="148" fill="#C4C4C4"/>
    </mask>
    <g mask="url(#mask0)">
        <g opacity="0.6">
            <path d="M140.403 159.27H144.17V143.843H140.403V159.27Z" fill="#FFDA68"/>
            <path d="M121.267 159.27H125.033V143.843H121.267V159.27Z" fill="#FFDA68"/>
            <path d="M92.9991 159.27H96.7656V143.843H92.9991V159.27Z" fill="#FFDA68"/>
            <path d="M140.403 137.3H144.17V121.873H140.403V137.3Z" fill="#FFDA68"/>
            <path d="M112.136 137.3H115.902V121.873H112.136V137.3Z" fill="#FFDA68"/>
            <path d="M130.835 137.3H134.602V121.873H130.835V137.3Z" fill="#FFDA68"/>
            <path d="M102.567 137.3H106.334V121.873H102.567V137.3Z" fill="#FFDA68"/>
            <path d="M130.835 115.337H134.602V99.9104H130.835V115.337Z" fill="#FFDA68"/>
            <path d="M102.567 115.337H106.334V99.9104H102.567V115.337Z" fill="#FFDA68"/>
            <path d="M121.267 115.337H125.033V99.9104H121.267V115.337Z" fill="#FFDA68"/>
            <path d="M151.653 115.337H155.42V99.9104H151.653V115.337Z" fill="#FFDA68"/>
            <path d="M92.9991 115.337H96.7656V99.9104H92.9991V115.337Z" fill="#FFDA68"/>
            <path d="M140.403 93.3596H144.17V77.9332H140.403V93.3596Z" fill="#FFDA68"/>
            <path d="M112.136 93.3596H115.902V77.9332H112.136V93.3596Z" fill="#FFDA68"/>
            <path d="M121.267 93.3596H125.033V77.9332H121.267V93.3596Z" fill="#FFDA68"/>
            <path d="M151.653 93.3596H155.42V77.9332H151.653V93.3596Z" fill="#FFDA68"/>
            <path d="M92.9991 93.3596H96.7656V77.9332H92.9991V93.3596Z" fill="#FFDA68"/>
            <path d="M140.403 71.3965H144.17V55.9701H140.403V71.3965Z" fill="#FFDA68"/>
            <path d="M112.136 71.3965H115.902V55.9701H112.136V71.3965Z" fill="#FFDA68"/>
            <path d="M130.835 71.3965H134.602V55.9701H130.835V71.3965Z" fill="#FFDA68"/>
            <path d="M102.567 71.3965H106.334V55.9701H102.567V71.3965Z" fill="#FFDA68"/>
            <path d="M102.567 49.4264H106.334V34H102.567V49.4264Z" fill="#FFDA68"/>
            <path d="M121.267 49.4264H125.033V34H121.267V49.4264Z" fill="#FFDA68"/>
            <path d="M92.9991 49.4264H96.7656V34H92.9991V49.4264Z" fill="#FFDA68"/>
        </g>
        <g opacity="0.6">
            <path d="M43.835 146.337H47.6016V130.91H43.835V146.337Z" fill="#FFDA68"/>
            <path d="M74.2218 146.337H77.9883V130.91H74.2218V146.337Z" fill="#FFDA68"/>
            <path d="M15.5675 146.337H19.334L19.334 130.91H15.5675L15.5675 146.337Z" fill="#FFDA68"/>
            <path d="M34.2667 146.337H38.0332V130.91H34.2667V146.337Z" fill="#FFDA68"/>
            <path d="M64.6534 146.337H68.4199V130.91H64.6534V146.337Z" fill="#FFDA68"/>
            <path d="M5.99913 146.337H9.76562L9.76562 130.91H5.99913L5.99913 146.337Z" fill="#FFDA68"/>
            <path d="M53.4034 124.36H57.1699V108.933H53.4034V124.36Z" fill="#FFDA68"/>
            <path d="M83.7901 124.36H87.5566V108.933H83.7901V124.36Z" fill="#FFDA68"/>
            <path d="M25.1358 124.36H28.9023L28.9023 108.933H25.1358V124.36Z" fill="#FFDA68"/>
            <path d="M34.2667 124.36H38.0332V108.933H34.2667V124.36Z" fill="#FFDA68"/>
            <path d="M64.6534 124.36H68.4199V108.933H64.6534V124.36Z" fill="#FFDA68"/>
            <path d="M5.99913 124.36H9.76562L9.76562 108.933H5.99913L5.99913 124.36Z" fill="#FFDA68"/>
            <path d="M53.4034 102.396H57.1699V86.9701H53.4034V102.396Z" fill="#FFDA68"/>
            <path d="M83.7901 102.396H87.5566V86.9701H83.7901V102.396Z" fill="#FFDA68"/>
            <path d="M25.1358 102.396H28.9023L28.9023 86.9701H25.1358V102.396Z" fill="#FFDA68"/>
            <path d="M43.835 102.396H47.6016V86.9701H43.835V102.396Z" fill="#FFDA68"/>
            <path d="M74.2218 102.396H77.9883V86.9701H74.2218V102.396Z" fill="#FFDA68"/>
            <path d="M15.5675 102.396H19.334L19.334 86.9701H15.5675L15.5675 102.396Z" fill="#FFDA68"/>
            <path d="M83.7901 80.4264H87.5566V65H83.7901V80.4264Z" fill="#FFDA68"/>
            <path d="M74.2218 80.4264H77.9883V65H74.2218V80.4264Z" fill="#FFDA68"/>
            <path d="M15.5675 80.4264H19.334L19.334 65H15.5675L15.5675 80.4264Z" fill="#FFDA68"/>
            <path d="M34.2667 80.4264H38.0332V65H34.2667V80.4264Z" fill="#FFDA68"/>
            <path d="M5.99913 80.4264H9.76562L9.76562 65H5.99913L5.99913 80.4264Z" fill="#FFDA68"/>
        </g>
    </g>
</svg>
