<svg width="102" height="75" viewBox="0 0 102 75" fill="none"
    xmlns="http://www.w3.org/2000/svg">
    <path d="M72.8689 12.522C73.1684 10.3463 70.0978 8.55693 67.7911 8.37086C66.6909 8.28231 65.548 8.45044 64.5058 8.08727C62.2476 7.30013 61.3454 4.38253 59.1419 3.45339C57.4946 2.75847 55.598 3.37708 54.0008 4.18095C52.4037 4.98482 50.8254 5.99639 49.0413 6.11064C47.4895 6.2098 45.8038 5.63445 44.4462 6.39261C43.4342 6.95736 42.9042 8.12358 41.9718 8.81156C41.0594 9.48444 39.8691 9.62686 38.7371 9.68847C37.6052 9.75009 36.4332 9.76151 35.4021 10.2336C34.3713 10.7058 33.5185 11.7957 33.7323 12.9088L72.8689 12.522Z" fill="#F2F2F2"/>
    <path d="M68.6063 57.3219C69.3204 57.3356 70.0202 57.4459 70.6896 57.6425L72.0471 56.2366L74.8114 57.913L74.1926 59.7667C74.6765 60.2692 75.0979 60.8386 75.4402 61.4657L77.3931 61.4314L78.1625 64.5716L76.4151 65.4439C76.4015 66.158 76.2912 66.8581 76.0943 67.5275L77.5001 68.8847L75.8237 71.649L73.97 71.0302C73.4676 71.514 72.8981 71.9352 72.2713 72.2774L72.3053 74.2304L69.1655 75.0001L68.2931 73.2524C67.5791 73.2387 66.8793 73.1284 66.2099 72.9315L64.8524 74.3373L62.0881 72.6609L62.7072 70.8073C62.2234 70.3048 61.8022 69.7353 61.46 69.1082L59.5067 69.1426L58.7373 66.0024L60.4847 65.13C60.4983 64.416 60.6083 63.7162 60.8052 63.0468L59.3994 61.6893L61.0758 58.925L62.9294 59.5438C63.4319 59.0599 64.0017 58.6388 64.6281 58.2966L64.5942 56.3436L67.734 55.5742L68.6063 57.3219ZM67.767 61.8836C65.9067 62.3394 64.7678 64.217 65.2239 66.0777C65.6798 67.938 67.5574 69.0766 69.4177 68.6208C71.278 68.1649 72.417 66.2873 71.9608 64.427C71.505 62.5663 69.6273 61.4277 67.767 61.8836Z" fill="#FFDA68"/>
    <path d="M67.7666 61.8834C67.7666 61.8834 68.0565 61.7641 68.6149 61.7484C69.1624 61.7348 70.0164 61.8741 70.8141 62.5028C71.205 62.8154 71.5788 63.2429 71.8234 63.7854C72.0637 64.3245 72.2063 64.9669 72.128 65.634C72.098 65.9672 72.011 66.3031 71.8754 66.6257C71.7444 66.9502 71.5585 67.2618 71.3223 67.539C70.8614 68.1051 70.191 68.526 69.4413 68.7169C68.6882 68.8948 67.8988 68.8315 67.2284 68.5426C66.8905 68.406 66.582 68.2157 66.3154 67.9882C66.0459 67.7649 65.8133 67.507 65.633 67.2254C65.2548 66.6703 65.0846 66.0345 65.0482 65.4454C65.0142 64.8516 65.1482 64.2995 65.3505 63.8417C65.767 62.9154 66.4601 62.3972 66.9519 62.156C67.4544 61.9114 67.7666 61.8834 67.7666 61.8834C67.7739 61.9067 67.468 61.9644 66.9882 62.2243C66.5177 62.4808 65.8629 63.001 65.4794 63.8977C65.2935 64.3412 65.1735 64.8703 65.2132 65.4361C65.2552 65.9972 65.4228 66.6003 65.7856 67.1235C65.9586 67.3894 66.1805 67.632 66.437 67.8419C66.6903 68.0558 66.9835 68.2344 67.3034 68.3624C67.9385 68.6333 68.6829 68.6909 69.3943 68.5233C70.1024 68.3427 70.7355 67.9475 71.1733 67.4137C71.3979 67.1525 71.5752 66.8586 71.7008 66.5517C71.8311 66.2471 71.9157 65.9292 71.9464 65.6137C72.0263 64.9823 71.896 64.3698 71.6738 63.8527C71.4472 63.3329 71.096 62.919 70.7265 62.6118C69.9721 61.9937 69.1507 61.8351 68.6153 61.8254C68.0685 61.8171 67.7706 61.9077 67.7666 61.8834Z" fill="#FFDA68"/>
    <path d="M35.6319 5.74043C35.8154 4.40772 33.9344 3.31125 32.521 3.19725C31.847 3.143 31.1468 3.246 30.5083 3.02351C29.1248 2.54127 28.5721 0.753818 27.2221 0.184584C26.2129 -0.241154 25.0509 0.137835 24.0725 0.630321C23.094 1.12281 22.127 1.74254 21.034 1.81254C20.0831 1.87329 19.0506 1.5208 18.2189 1.98529C17.5989 2.33128 17.2741 3.04575 16.7029 3.46724C16.1439 3.87948 15.4147 3.96673 14.7212 4.00448C14.0277 4.04223 13.3095 4.04923 12.678 4.33847C12.0465 4.62771 11.524 5.29544 11.655 5.97742L35.6319 5.74043Z" fill="#F2F2F2"/>
    <path d="M27.9913 36.5548C25.2406 34.0061 20.3655 34.3051 17.9468 37.1705C16.9926 38.301 16.3466 39.7804 15.0359 40.4662C13.0265 41.5176 10.595 40.1902 8.33535 40.3832C5.68542 40.6096 3.50998 43.2973 3.84072 45.936C3.98971 47.1245 4.5532 48.3937 3.99447 49.4534C3.28124 50.8056 1.21955 50.8596 0.35232 52.1186C-0.430658 53.2553 0.179821 54.934 1.31504 55.719C2.45051 56.5037 3.91872 56.5997 5.29768 56.537C6.67664 56.4742 8.07735 56.282 9.42331 56.5875C10.9048 56.9237 12.1845 57.8329 13.5947 58.3981C16.9879 59.7584 20.9607 59.0009 24.1039 57.1339C27.2471 55.267 29.6778 52.4106 31.7987 49.4329" fill="#FF8080"/>
    <g opacity="0.8">
        <g opacity="0.8">
            <g opacity="0.8">
                <path opacity="0.8" d="M27.9913 36.5548C25.2406 34.0061 20.3655 34.3051 17.9468 37.1705C16.9926 38.301 16.3466 39.7804 15.0359 40.4662C13.0265 41.5176 10.595 40.1902 8.33535 40.3832C5.68542 40.6096 3.50998 43.2973 3.84072 45.936C3.98971 47.1245 4.5532 48.3937 3.99447 49.4534C3.28124 50.8056 1.21955 50.8596 0.35232 52.1186C-0.430658 53.2553 0.179821 54.934 1.31504 55.719C2.45051 56.5037 3.91872 56.5997 5.29768 56.537C6.67664 56.4742 8.07735 56.282 9.42331 56.5875C10.9048 56.9237 12.1845 57.8329 13.5947 58.3981C16.9879 59.7584 20.9607 59.0009 24.1039 57.1339C27.2471 55.267 29.6778 52.4106 31.7987 49.4329" fill="white"/>
            </g>
        </g>
    </g>
    <path d="M27.3233 40.0232C25.0858 37.8282 20.9239 38.1372 19.035 40.6384C17.8813 42.1661 17.2205 44.5003 15.3236 44.757C14.0371 44.931 12.8189 43.9628 11.5245 44.0623C9.80125 44.1948 8.75628 46.2953 9.19952 47.9657C9.64275 49.6362 11.1132 50.8396 12.6539 51.6221C17.997 54.3355 25.1173 52.9016 28.9935 48.3314" fill="#FF8080"/>
    <path d="M33.4726 32.9351L27.3092 31.0334C19.8749 40.5004 20.3709 50.9019 32.3393 57.059L38.9799 49.6147L33.4726 32.9351Z" fill="#F68633"/>
    <path d="M34.0747 31.4259C30.1303 33.7263 28.1694 38.5764 28.6494 43.3185C29.1763 48.5239 32.6157 53.5983 38.9198 55.001L81.3019 46.5282C88.7017 45.049 93.2496 37.5532 91.1446 30.3066C89.2249 23.6986 82.4496 19.7669 75.7598 21.3794L34.0747 31.4259Z" fill="#F5F5F5"/>
    <path d="M38.9189 55.0012L33.3301 67.7126C33.3301 67.7126 59.7033 65.1687 58.5799 51.0708L38.9189 55.0012Z" fill="#F68633"/>
    <path d="M54.0329 26.6157C54.0329 26.6157 41.352 14.3093 25.2314 19.4934L34.0737 31.4261L54.0329 26.6157Z" fill="#F68633"/>
    <path d="M77.1875 21.2048C82.6293 25.2189 85.9573 40.8457 83.3348 45.8126C98.7599 41.2995 101.994 28.0573 101.994 28.0573C90.8436 17.6781 77.1875 21.2048 77.1875 21.2048Z" fill="#F68633"/>
    <path d="M49.9462 37.3176L23.3659 42.8199C23.3659 42.8199 23.2469 45.4156 23.8989 45.4373C24.4449 45.4553 44.2074 41.8887 50.6169 40.7287C51.6654 40.539 52.2889 39.461 51.9419 38.4535C51.6574 37.6268 50.8024 37.1403 49.9462 37.3176Z" fill="#F68633"/>
    <path d="M76.6583 34.8711C76.6628 31.6094 73.8221 28.9613 70.3132 28.9564C66.8044 28.9515 63.9562 31.5916 63.9516 34.8533C63.9471 38.115 66.7878 40.7631 70.2967 40.768C73.8055 40.773 76.6537 38.1328 76.6583 34.8711Z" fill="#FFDA68"/>
</svg>
