<svg width="90" height="75" viewBox="0 0 90 75" fill="none"
    xmlns="http://www.w3.org/2000/svg">
    <path opacity="0.4" d="M89.8805 1.55396H11.7266V70.4069H89.8805V1.55396Z" fill="#FFDA68"/>
    <path opacity="0.2" d="M88.4615 7.44409H10.3076V70.4067H88.4615V7.44409Z" fill="#FFDA68"/>
    <path opacity="0.6" d="M76.9007 18.0249H20.7236V59.826H76.9007V18.0249Z" fill="white"/>
    <path d="M-0.000370026 70.407H10.3076L10.3076 7.44433H-0.000370026L-0.000370026 70.407Z" fill="#F0F0F0"/>
    <path d="M-0.000370026 11.4531L10.3076 11.4531V7.44454L-0.000370026 7.44454V11.4531Z" fill="#EBEBEB"/>
    <path d="M0 7.44434L88.4619 7.44434V1.55406L0 1.55406V7.44434Z" fill="#E0E0E0"/>
    <path d="M10.3077 9.89868L34.1143 9.89868V7.4444L10.3077 7.4444V9.89868Z" fill="#FAFAFA"/>
    <path d="M57.9208 7.44409H34.1143V9.89837H57.9208V7.44409Z" fill="#EBEBEB"/>
    <path d="M4.38026 12.2712H0.772461V15.879H4.38026V12.2712Z" fill="#E0E0E0"/>
    <path d="M9.53455 12.2712H5.92676V15.879H9.53455V12.2712Z" fill="#E0E0E0"/>
    <path d="M5.92638 21.0327H9.53418V17.4249H5.92638V21.0327Z" fill="#E0E0E0"/>
    <path d="M0.773065 21.0327H4.38086V17.4249H0.773065L0.773065 21.0327Z" fill="#E0E0E0"/>
    <path d="M4.38026 22.5791H0.772461V26.1869H4.38026V22.5791Z" fill="#E0E0E0"/>
    <path d="M9.53455 22.5791H5.92676V26.1869H9.53455V22.5791Z" fill="#E0E0E0"/>
    <path d="M5.92638 31.3408H9.53418V27.733H5.92638V31.3408Z" fill="#E0E0E0"/>
    <path d="M0.773065 31.3408H4.38086V27.733H0.773065L0.773065 31.3408Z" fill="#E0E0E0"/>
    <path d="M4.38026 32.887H0.772461V36.4948H4.38026V32.887Z" fill="#E0E0E0"/>
    <path d="M9.53455 32.887H5.92676V36.4948H9.53455V32.887Z" fill="#E0E0E0"/>
    <path d="M5.92638 41.6489H9.53418V38.0411H5.92638V41.6489Z" fill="#E0E0E0"/>
    <path d="M0.773065 41.6489H4.38086V38.0411H0.773065L0.773065 41.6489Z" fill="#E0E0E0"/>
    <path d="M0.773556 55.7139H2.98438L2.98438 53.5031H0.773556L0.773556 55.7139Z" fill="#E6E6E6"/>
    <path d="M7.32434 55.7139H9.53516V53.5031H7.32434V55.7139Z" fill="#E6E6E6"/>
    <path d="M4.04895 55.7139H6.25977V53.5031H4.04895V55.7139Z" fill="#E6E6E6"/>
    <path d="M4.15009 51.9343H9.5127V46.5717H4.15009L4.15009 51.9343Z" fill="#E6E6E6"/>
    <path d="M0.774112 48.5574H6.13672L6.13672 43.1948H0.774112L0.774112 48.5574Z" fill="white"/>
    <g opacity="0.8">
        <path d="M69.8688 33.4888C70.665 28.5829 67.3334 23.9603 62.4275 23.1641C57.5215 22.3679 52.899 25.6995 52.1028 30.6055C51.3066 35.5115 54.6382 40.134 59.5442 40.9302C64.4501 41.7264 69.0726 38.3948 69.8688 33.4888Z" fill="white"/>
        <path d="M63.9375 53.503V38.041H58.0305V53.503H63.9375Z" fill="white"/>
    </g>
    <path d="M53.1069 42.1076L46.1574 49.0571C46.1574 49.0571 41.8737 44.2546 36.2036 44.7972C34.1064 40.1937 31.7103 30.3842 31.0498 27.5846L40.5133 37.0481C40.2094 37.6037 40.2931 38.3115 40.7624 38.7808C41.334 39.3524 42.2565 39.3524 42.8282 38.7808C43.3995 38.2094 43.4022 37.2842 42.8306 36.7126C42.3613 36.2433 41.6511 36.1621 41.0952 36.4659L31.6317 27.0024C34.4313 27.6629 44.2408 30.059 48.8443 32.1562C48.3044 37.8241 53.1069 42.1076 53.1069 42.1076Z" fill="#F68633"/>
    <path opacity="0.2" d="M48.8445 32.1572C44.242 30.0592 34.4302 27.6639 31.6299 27.0027L41.0931 36.4659C41.6505 36.1608 42.3605 36.2418 42.8312 36.7126C43.4018 37.2832 43.3982 38.2097 42.8275 38.7803L49.6298 45.5826L53.1063 42.1061C53.1063 42.1066 48.304 37.8241 48.8445 32.1572Z" fill="#FFDA68"/>
    <g opacity="0.8">
        <path d="M72.2823 68.2347C71.063 69.454 69.0679 69.454 67.8486 68.2347L47.4678 47.8538L51.9014 43.4202L72.2823 63.801C73.5016 65.0203 73.5016 67.0156 72.2823 68.2347Z" fill="#F68633"/>
        <path opacity="0.7" d="M72.2823 68.2347C71.063 69.454 69.0679 69.454 67.8486 68.2347L47.4678 47.8538L51.9014 43.4202L72.2823 63.801C73.5016 65.0203 73.5016 67.0156 72.2823 68.2347Z" fill="white"/>
    </g>
    <path opacity="0.5" d="M54.3593 45.4522L49.4996 50.3119C49.2203 50.5912 48.7633 50.5912 48.484 50.3119L47.2544 49.0823C46.9751 48.803 46.9751 48.3461 47.2544 48.0668L52.1141 43.207C52.3934 42.9277 52.8504 42.9277 53.1297 43.207L54.3593 44.4366C54.6386 44.7159 54.6386 45.1732 54.3593 45.4522Z" fill="#F68633"/>
    <path d="M54.2468 43.3206L47.3686 50.1987C47.0331 50.5342 46.4839 50.5342 46.1481 50.1987L45.0165 49.0671C44.6807 48.7316 44.6807 48.1823 45.0165 47.8466L51.8946 40.9684C52.2301 40.6329 52.7794 40.6329 53.1149 40.9684L54.2465 42.1001C54.5823 42.4358 54.5823 42.9851 54.2468 43.3206Z" fill="#FF8080"/>
    <path opacity="0.4" d="M54.2468 43.3206L47.3686 50.1987C47.0331 50.5342 46.4839 50.5342 46.1481 50.1987L45.0165 49.0671C44.6807 48.7316 44.6807 48.1823 45.0165 47.8466L51.8946 40.9684C52.2301 40.6329 52.7794 40.6329 53.1149 40.9684L54.2465 42.1001C54.5823 42.4358 54.5823 42.9851 54.2468 43.3206Z" fill="#E0E0E0"/>
    <path d="M46.9764 45.8847L45.9863 46.8748L48.3384 49.2267L49.3284 48.2367L46.9764 45.8847Z" fill="#F68633"/>
    <path d="M49.9971 47.5733L50.4033 47.167L48.0513 44.8149L47.6451 45.2212L49.9971 47.5733Z" fill="#F68633"/>
    <path d="M29.4476 71.4026C16.7649 58.7198 16.7649 38.0835 29.4476 25.4007C42.1304 12.718 62.7667 12.718 75.4495 25.4007L75.0727 25.7775C62.5976 13.3023 42.2992 13.3023 29.8241 25.7775C17.349 38.2526 17.349 58.551 29.8241 71.0261L29.4476 71.4026Z" fill="#F68633"/>
    <path d="M52.2597 2.58812L6.63477 48.2128L7.01136 48.5894L52.6363 2.9647L52.2597 2.58812Z" fill="#F68633"/>
    <path d="M29.6348 22.1799L26.2256 25.5889L29.6348 28.9978L33.044 25.5889L29.6348 22.1799Z" fill="white"/>
    <path d="M29.6353 29.3747L25.8496 25.589L29.6353 21.8032L33.4211 25.589L29.6353 29.3747ZM26.6028 25.589L29.6353 28.6215L32.6679 25.589L29.6353 22.5564L26.6028 25.589Z" fill="#F68633"/>
    <path d="M29.6336 67.8047L26.2246 71.2139L29.6336 74.623L33.0425 71.2139L29.6336 67.8047Z" fill="white"/>
    <path d="M29.6353 74.9999L25.8496 71.2142L29.6353 67.4285L33.4211 71.2142L29.6353 74.9999ZM26.6028 71.214L29.6353 74.2465L32.6679 71.214L29.6353 68.1814L26.6028 71.214Z" fill="#F68633"/>
    <path d="M75.3583 22.0811L71.9492 25.4901L75.3583 28.8992L78.7674 25.4901L75.3583 22.0811Z" fill="white"/>
    <path d="M75.3599 29.2756L71.5742 25.4898L75.3599 21.7041L79.1457 25.4898L75.3599 29.2756ZM72.3274 25.4896L75.3599 28.5221L78.3925 25.4896L75.3599 22.4571L72.3274 25.4896Z" fill="#F68633"/>
    <path d="M52.5473 5.08755C53.8786 5.08755 54.9579 4.00829 54.9579 2.67695C54.9579 1.34562 53.8786 0.266357 52.5473 0.266357C51.216 0.266357 50.1367 1.34562 50.1367 2.67695C50.1367 4.00829 51.216 5.08755 52.5473 5.08755Z" fill="white"/>
    <path d="M52.5469 5.35402C51.832 5.35402 51.1598 5.0757 50.6539 4.56987C49.6101 3.52607 49.6101 1.8277 50.6539 0.784143C51.1595 0.278561 51.8318 0 52.5469 0C53.2619 0 53.9341 0.278316 54.4397 0.784143C54.9453 1.28973 55.2238 1.96195 55.2238 2.67713C55.2238 3.39206 54.9455 4.06429 54.4397 4.57012C53.9341 5.0757 53.2619 5.35402 52.5469 5.35402ZM52.5469 0.532824C51.9741 0.532824 51.4356 0.75592 51.0307 1.16088C50.1948 1.99705 50.1948 3.35721 51.0307 4.19339C51.8669 5.02956 53.2273 5.02932 54.0632 4.19339C54.4681 3.78843 54.6912 3.24996 54.6912 2.67713C54.6912 2.1043 54.4681 1.56583 54.0632 1.16088C53.6582 0.75592 53.1198 0.532824 52.5469 0.532824Z" fill="#F68633"/>
    <path d="M6.82271 50.8119C8.15404 50.8119 9.2333 49.7327 9.2333 48.4013C9.2333 47.07 8.15404 45.9907 6.82271 45.9907C5.49137 45.9907 4.41211 47.07 4.41211 48.4013C4.41211 49.7327 5.49137 50.8119 6.82271 50.8119Z" fill="white"/>
    <path d="M6.8233 51.0771C6.13782 51.0771 5.45234 50.8162 4.93032 50.2944C3.88651 49.2506 3.88651 47.5522 4.93032 46.5087C5.97412 45.4649 7.67248 45.4649 8.71605 46.5087C9.75985 47.5525 9.75985 49.2506 8.71605 50.2944C8.19427 50.8162 7.50878 51.0771 6.8233 51.0771ZM6.8233 46.2584C6.27403 46.2584 5.72526 46.4672 5.30705 46.8854C4.47087 47.7213 4.47087 49.0818 5.30705 49.9179C6.14322 50.7541 7.50363 50.7539 8.33956 49.9179C9.17549 49.0818 9.17549 47.7216 8.33956 46.8854C7.9216 46.4675 7.37233 46.2584 6.8233 46.2584Z" fill="#F68633"/>
</svg>
