<svg width="152" height="150" viewBox="0 0 152 150" fill="none"
    xmlns="http://www.w3.org/2000/svg">
    <rect x="1" width="150" height="150" fill="#231F20"/>
    <path d="M97.7899 90.801V90.551H97.5399H85.148H84.898V90.801V92.1021V92.3521H85.148H95.9855V98.9621H62.6515L56.2351 92.5598V68.9822V68.7322H55.9851H54.6807H54.4307V68.9822V93.2025V93.3063L54.5041 93.3795L61.833 100.69L61.9062 100.763H62.0096H97.5399H97.7899V100.513V90.801Z" fill="white" stroke="white" stroke-width="0.5"/>
    <path d="M60.5446 56.9033V56.8111V56.7996V55.122H64.0719H64.1752L64.2484 55.049L68.3903 50.9173H95.9849V57.5273H63.1122H62.8622V57.7773V71.3987V71.6487H63.1122H89.789V78.2586H76.6696L72.5277 74.127L72.4545 74.054H72.3511H63.1122H62.8622V74.304V75.6052V75.8552H63.1122H71.7074L75.8493 79.9868L75.9225 80.0598H76.0259H91.3434H91.5934V79.8098V70.0975V69.8475H91.3434H64.6666V59.3285H97.5394H97.7894V59.0785V49.3662V49.1162H97.5394H67.7484H67.6451L67.5719 49.1892L66.2675 50.4903L66.2675 50.4904L63.4281 53.3208H58.9902H58.7402V53.5708V63.127V63.377H58.9902H60.2946H60.5446V63.127V56.9148V56.9033Z" fill="white" stroke="white" stroke-width="0.5"/>
    <path d="M77.041 74.054H76.791V74.304V75.6052V75.8552H77.041H87.9888H88.2388V75.6052V74.304V74.054H87.9888H77.041Z" fill="white" stroke="white" stroke-width="0.5"/>
    <path d="M94.4819 95.0056V94.7556H94.2319H85.0385L80.8966 90.6239L80.8234 90.5509H80.72H65.9064L64.6667 89.316V80.0598H71.3581H71.6081V79.8098V78.5086V78.2586H71.3581H63.1123H62.8623V78.5086V89.9589V90.0626L62.9357 90.1359L65.0843 92.2791L65.1575 92.3521H65.2609H80.0762L84.2182 96.4837L84.2913 96.5567H84.3947H94.2319H94.4819V96.3067V95.0056Z" fill="white" stroke="white" stroke-width="0.5"/>
    <path d="M60.5451 56.7996V56.197L60.1185 56.6226L60.0607 56.6802L59.8833 56.8572L60.0607 57.0342L60.1185 57.0918L60.5451 57.5174V56.9148V56.7996Z" fill="white" stroke="white" stroke-width="0.5"/>
    <path d="M68.7031 53.3208H68.4531V53.5708V54.872V55.122H68.7031H94.046H94.296V54.872V53.5708V53.3208H94.046H68.7031Z" fill="white" stroke="white" stroke-width="0.5"/>
    <path d="M68.7031 52.9491H68.4531V53.1991V55.2437V55.4937H68.7031H70.7529H71.0029V55.2437V53.1991V52.9491H70.7529H68.7031Z" fill="white" stroke="white" stroke-width="0.5"/>
    <path d="M92.1826 52.9491H91.9326V53.1991V55.2437V55.4937H92.1826H94.2324H94.4824V55.2437V53.1991V52.9491H94.2324H92.1826Z" fill="white" stroke="white" stroke-width="0.5"/>
    <path d="M92.1826 94.4098H91.9326V94.6598V96.7045V96.9545H92.1826H94.2324H94.4824V96.7045V94.6598V94.4098H94.2324H92.1826Z" fill="white" stroke="white" stroke-width="0.5"/>
    <path d="M54.3076 68.7322H54.0576V68.9822V71.0269V71.2769H54.3076H56.3574H56.6074V71.0269V68.9822V68.7322H56.3574H54.3076Z" fill="white" stroke="white" stroke-width="0.5"/>
    <path d="M69.3145 77.8813H69.0645V78.1313V80.176V80.426H69.3145H71.3642H71.6142V80.176V78.1313V77.8813H71.3642H69.3145Z" fill="white" stroke="white" stroke-width="0.5"/>
    <path d="M63.1123 73.6822H62.8623V73.9322V75.9769V76.2269H63.1123H65.1621H65.4121V75.9769V73.9322V73.6822H65.1621H63.1123Z" fill="white" stroke="white" stroke-width="0.5"/>
    <path d="M58.7539 60.9457H58.5039V61.1957V63.2404V63.4904H58.7539H60.8037H61.0537V63.2404V61.1957V60.9457H60.8037H58.7539Z" fill="white" stroke="white" stroke-width="0.5"/>
    <path d="M85.9395 73.6822H85.6895V73.9322V75.9769V76.2269H85.9395H87.9893H88.2393V75.9769V73.9322V73.6822H87.9893H85.9395Z" fill="white" stroke="white" stroke-width="0.5"/>
    <path d="M77.041 73.6822H76.791V73.9322V75.9769V76.2269H77.041H79.0908H79.3408V75.9769V73.9322V73.6822H79.0908H77.041Z" fill="white" stroke="white" stroke-width="0.5"/>
    <path d="M79.9009 95.0056V94.7556H79.6509H64.2858L60.5098 90.989V68.0379V67.9342L60.4364 67.8609L56.2351 63.6701V50.9173H63.1128H63.3628V50.6673V49.3662V49.1162H63.1128H54.6807H54.4307V49.3662V64.311V64.4148L54.5041 64.488L58.7054 68.6789V91.6318V91.7356L58.7789 91.8088L63.4654 96.4837L63.5386 96.5567H63.642H79.6509H79.9009V96.3067V95.0056Z" fill="white" stroke="white" stroke-width="0.5"/>
    <path d="M61.0625 48.75H60.8125V49V51.0447V51.2947H61.0625H63.1123H63.3623V51.0447V49V48.75H63.1123H61.0625Z" fill="white" stroke="white" stroke-width="0.5"/>
    <path d="M77.6006 94.3485H77.3506V94.5985V96.6432V96.8932H77.6006H79.6504H79.9004V96.6432V94.5985V94.3485H79.6504H77.6006Z" fill="white" stroke="white" stroke-width="0.5"/>
    <path d="M85.123 90.2368H84.873V90.4868V92.5315V92.7815H85.123H87.1728H87.4228V92.5315V90.4868V90.2368H87.1728H85.123Z" fill="white" stroke="white" stroke-width="0.5"/>
    <path d="M42.8672 79.0778L43.0447 78.9008L42.8672 78.7238L38.2627 74.1307L38.1895 74.0577H38.0861H21.6934H21.4434V74.3077V75.6089V75.8589H21.6934H37.4423L41.5917 79.998L41.7683 80.1741L41.9448 79.998L42.8672 79.0778Z" fill="white" stroke="white" stroke-width="0.5"/>
    <path d="M39.1916 81.2578V81.1541L39.1181 81.0808L37.8137 79.7796L37.6665 79.6328L36.3621 78.3316L36.2889 78.2586H36.1855H20.8781L18.0425 75.4319L18.0425 75.4318L16.7381 74.1307L16.6649 74.0577H16.5616H12.243L11.8082 73.624V73.624L11.7814 73.5972L11.7347 73.5507L11.7082 73.5242L8.89564 70.7205V58.6878L12.4703 55.122H24.4961H24.7461V54.872V53.6006V53.3506H24.4961H11.7967H11.6934L11.6202 53.4236L7.16467 57.868L7.09123 57.9412V58.045V71.3634V71.4671L7.16467 71.5404L8.46909 72.8415L8.46919 72.8416L10.1182 74.4847L10.1183 74.4848L11.4226 75.7859L11.4958 75.8589H11.5992H15.9197L20.0579 79.9868L20.131 80.0598H20.2344H35.5417L37.3871 81.9006V90.1024L36.9654 90.5231H33.3028H33.1994L33.1262 90.5961L31.8218 91.8972L28.9563 94.7556H11.6802L8.1849 91.269L8.00834 91.0928L7.83179 91.269L6.90938 92.1891L6.73194 92.3661L6.90938 92.5431L10.8599 96.4837L10.9331 96.5568H11.0364H29.6001H29.7035L29.7767 96.4837L33.9465 92.3242H37.6092H37.7126L37.7857 92.2512L39.1181 90.9222L39.1916 90.8489V90.7452V81.2578Z" fill="white" stroke="white" stroke-width="0.5"/>
    <path d="M11.6057 74.0248H12.2104L11.7823 73.5978L11.7351 73.5508L11.3086 73.1253V73.7278V73.7748V74.0248H11.5586H11.6057Z" fill="white" stroke="white" stroke-width="0.5"/>
    <path d="M49.6483 58.4618L49.8258 58.2848L49.6483 58.1078L40.7131 49.1948L40.6399 49.1218H40.5365H9.96855H9.86518L9.792 49.1948L2.94942 56.0203L2.87598 56.0936V56.1973V73.1627V73.2664L2.94942 73.3397L9.61311 79.9868L9.68629 80.0598H9.78966H15.7639H16.0139V79.8098V78.5086V78.2586H15.7639H10.4334L4.68039 72.5199V56.8401L10.6123 50.9229H39.8928L47.2729 58.2847L42.4876 63.0564L38.3223 58.9015L37.0179 57.6003L36.9447 57.5273H36.8413H30.3901H30.1401V57.7773V59.0785V59.3285H30.3901H36.1975L41.3886 64.5066L42.311 65.4267L42.4876 65.6028L42.6641 65.4267L43.5865 64.5066L43.5865 64.5066L48.7259 59.3819L48.7259 59.3819L49.6483 58.4618Z" fill="white" stroke="white" stroke-width="0.5"/>
    <path d="M47.5511 86.7413V86.4913H47.3011H45.9966H45.7466V86.7413V93.8944L40.6663 98.9621H9.85041L3.19878 92.3252L8.03078 87.5052L12.811 92.2735L12.8842 92.3465H12.9876H27.6734H27.9234V92.0965V90.7954V90.5454H27.6734H13.6313L9.12975 86.055L8.20734 85.1349L8.03078 84.9588L7.85423 85.1349L6.93182 86.055L1.74585 91.2281L0.823444 92.1482L0.646006 92.3252L0.823444 92.5022L9.03193 100.69L9.10511 100.763H9.20848H41.3101H41.4134L41.4866 100.69L41.7773 100.4L46.1732 96.0153L47.4776 94.7142L47.5511 94.6409V94.5372V86.7413Z" fill="white" stroke="white" stroke-width="0.5"/>
    <path d="M37.8877 92.0463V91.4439L37.4611 91.8693L37.4328 91.8975L37.0047 92.3246H37.6094H37.6377H37.8877V92.0746V92.0463Z" fill="white" stroke="white" stroke-width="0.5"/>
    <path d="M11.6057 74.0248H12.2104L11.7823 73.5978L11.7351 73.5508L11.3086 73.1253V73.7278V73.7748V74.0248H11.5586H11.6057Z" fill="white" stroke="white" stroke-width="0.5"/>
    <path d="M39.1923 90.7452V90.1427L38.7658 90.5682L38.7375 90.5964L38.3095 91.0234H38.9141H38.9423H39.1923V90.7734V90.7452Z" fill="white" stroke="white" stroke-width="0.5"/>
    <path d="M47.5514 77.4398V77.3361L47.4779 77.2628L40.1173 69.9205L40.0441 69.8475H39.9407H14.0938L13.113 68.8692V60.3979L14.1851 59.3285H25.5866H25.69L25.7632 59.2555L27.0676 57.9543L29.8772 55.1517H38.0205L41.5922 58.7146L41.7688 58.8907L41.9453 58.7146L42.8677 57.7944L43.0452 57.6175L42.8677 57.4405L38.8408 53.4236L38.7677 53.3506H38.6643H29.2334H29.13L29.0568 53.4236L24.9428 57.5273H13.5413H13.4379L13.3647 57.6003L12.6864 58.2769L12.0603 58.9015L11.382 59.5781L11.3086 59.6513V59.7551V69.512V69.6157L11.382 69.689L12.6864 70.9901L13.2734 71.5757L13.3466 71.6487H13.45H39.297L45.7469 78.0826V81.4757L41.6276 85.5847L41.5542 85.658V85.7617V91.9129L38.7044 94.7556H33.5119H33.2619V95.0056V96.3068V96.5568H33.5119H39.3482H39.4515L39.5247 96.4837L43.2852 92.7327L43.3586 92.6594V92.5557V86.4045L47.4779 82.2954L47.5514 82.2222V82.1184V77.4398Z" fill="white" stroke="white" stroke-width="0.5"/>
    <path d="M41.3301 56.9585H41.0801V57.2085V59.2532V59.5032H41.3301H43.3799H43.6299V59.2532V57.2085V56.9585H43.3799H41.3301Z" fill="white" stroke="white" stroke-width="0.5"/>
    <path d="M30.3906 57.1518H30.1406V57.4018V59.4465V59.6965H30.3906H32.4404H32.6904V59.4465V57.4018V57.1518H32.4404H30.3906Z" fill="white" stroke="white" stroke-width="0.5"/>
    <path d="M22.4463 52.9398H22.1963V53.1898V55.2345V55.4845H22.4463H24.4961H24.7461V55.2345V53.1898V52.9398H24.4961H22.4463Z" fill="white" stroke="white" stroke-width="0.5"/>
    <path d="M21.6934 73.6822H21.4434V73.9322V75.9769V76.2269H21.6934H23.7432H23.9932V75.9769V73.9322V73.6822H23.7432H21.6934Z" fill="white" stroke="white" stroke-width="0.5"/>
    <path d="M13.7197 77.911H13.4697V78.161V80.2057V80.4557H13.7197H15.7695H16.0195V80.2057V78.161V77.911H15.7695H13.7197Z" fill="white" stroke="white" stroke-width="0.5"/>
    <path d="M26.4453 90.2015H26.1953V90.4515V92.4962V92.7462H26.4453H28.4951H28.7451V92.4962V90.4515V90.2015H28.4951H26.4453Z" fill="white" stroke="white" stroke-width="0.5"/>
    <path d="M6.20117 90.3651H5.95117V90.6151V92.6598V92.9098H6.20117H8.25096H8.50096V92.6598V90.6151V90.3651H8.25096H6.20117Z" fill="white" stroke="white" stroke-width="0.5"/>
    <path d="M45.6543 86.4764H45.4043V86.7264V88.7711V89.0211H45.6543H47.7041H47.9541V88.7711V86.7264V86.4764H47.7041H45.6543Z" fill="white" stroke="white" stroke-width="0.5"/>
    <path d="M33.5117 94.4006H33.2617V94.6506V96.6952V96.9452H33.5117H35.5615H35.8115V96.6952V94.6506V94.4006H35.5615H33.5117Z" fill="white" stroke="white" stroke-width="0.5"/>
    <path d="M41.3301 78.2586H41.0801V78.5086V80.5533V80.8033H41.3301H43.3799H43.6299V80.5533V78.5086V78.2586H43.3799H41.3301Z" fill="white" stroke="white" stroke-width="0.5"/>
    <path d="M144.396 79.089L144.573 78.912L144.396 78.735L139.791 74.1419L139.718 74.0689H139.614H123.222H122.972V74.3189V75.62V75.87H123.222H138.971L143.12 80.0091L143.297 80.1852L143.473 80.0091L144.396 79.089Z" fill="white" stroke="white" stroke-width="0.5"/>
    <path d="M140.72 81.269V81.1652L140.646 81.092L139.342 79.7908L139.195 79.644L137.89 78.3428L137.817 78.2698H137.714H122.406L119.571 75.443L119.571 75.443L118.266 74.1419L118.193 74.0689H118.09H113.771L113.337 73.6352V73.6351L113.31 73.6084L113.263 73.5619L113.236 73.5354L110.424 70.7317V58.6989L113.999 55.1331H126.024H126.274V54.8831V53.6117V53.3617H126.024H113.325H113.222L113.148 53.4347L108.693 57.8791L108.62 57.9524V58.0561V71.3745V71.4783L108.693 71.5515L109.997 72.8527L109.998 72.8528L111.647 74.4959L111.647 74.496L112.951 75.797L113.024 75.87H113.128H117.448L121.586 79.9979L121.659 80.071H121.763H137.07L138.915 81.9118V90.1136L138.494 90.5342H134.831H134.728L134.655 90.6072L133.35 91.9084L130.485 94.7667H113.209L109.713 91.2801L109.537 91.104L109.36 91.2801L108.438 92.2002L108.26 92.3772L108.438 92.5542L112.388 96.4949L112.461 96.5679H112.565H131.128H131.232L131.305 96.4949L135.475 92.3354H139.138H139.241L139.314 92.2624L140.646 90.9333L140.72 90.8601V90.7563V81.269Z" fill="white" stroke="white" stroke-width="0.5"/>
    <path d="M113.133 74.0359H113.738L113.31 73.6089L113.262 73.5619L112.836 73.1364V73.7389V73.7859V74.0359H113.086H113.133Z" fill="white" stroke="white" stroke-width="0.5"/>
    <path d="M151.177 58.4729L151.354 58.2959L151.177 58.1189L142.241 49.2059L142.168 49.1329H142.065H111.497H111.393L111.32 49.2059L104.478 56.0315L104.404 56.1047V56.2085V73.1738V73.2776L104.478 73.3508L111.141 79.9979L111.215 80.071H111.318H117.292H117.542V79.821V78.5198V78.2698H117.292H111.962L106.209 72.5311V56.8513L112.141 50.9341H141.421L148.801 58.2959L144.016 63.0676L139.851 58.9126L138.546 57.6115L138.473 57.5385H138.37H131.918H131.668V57.7885V59.0896V59.3396H131.918H137.726L142.917 64.5178L143.839 65.4379L144.016 65.614L144.192 65.4379L145.115 64.5178L145.115 64.5178L150.254 59.3931L150.254 59.393L151.177 58.4729Z" fill="white" stroke="white" stroke-width="0.5"/>
    <path d="M149.078 86.7525V86.5025H148.828H147.524H147.274V86.7525V93.9055L142.194 98.9732H111.378L104.726 92.3364L109.558 87.5164L114.338 92.2847L114.412 92.3577H114.515H129.201H129.451V92.1077V90.8065V90.5565H129.201H115.159L110.657 86.0662L110.481 86.2432L110.657 86.0662L109.735 85.146L109.558 84.9699L109.382 85.146L108.459 86.0662L108.628 86.2355L108.459 86.0662L103.273 91.2392L103.45 91.4162L103.273 91.2392L102.351 92.1593L102.173 92.3363L102.351 92.5133L110.559 100.701L110.632 100.774H110.736H142.837H142.941L143.014 100.701L143.305 100.411L147.701 96.0265L149.005 94.7253L149.078 94.6521V94.5483V86.7525Z" fill="white" stroke="white" stroke-width="0.5"/>
    <path d="M139.416 92.0575V91.4551L138.989 91.8805L138.961 91.9087L138.533 92.3357H139.138H139.166H139.416V92.0857V92.0575Z" fill="white" stroke="white" stroke-width="0.5"/>
    <path d="M113.133 74.0359H113.738L113.31 73.6089L113.262 73.5619L112.836 73.1364V73.7389V73.7859V74.0359H113.086H113.133Z" fill="white" stroke="white" stroke-width="0.5"/>
    <path d="M140.72 90.7563V90.1541L140.293 90.5793L140.265 90.6075L139.836 91.0346H140.441H140.47H140.72V90.7846V90.7563Z" fill="white" stroke="white" stroke-width="0.5"/>
    <path d="M149.079 77.451V77.3472L149.005 77.274L141.645 69.9317L141.571 69.8587H141.468H115.621L114.64 68.8803V60.409L115.712 59.3396H127.114H127.217L127.291 59.2666L128.595 57.9655L131.404 55.1629H139.548L143.12 58.7257L143.296 58.9018L143.473 58.7257L144.395 57.8056L144.573 57.6286L144.395 57.4516L140.368 53.4347L140.295 53.3617H140.192H130.761H130.657L130.584 53.4347L126.47 57.5385H115.069H114.965L114.892 57.6115L114.214 58.2881L114.384 58.459L114.214 58.2881L113.588 58.9126L112.909 59.5892L112.836 59.6625V59.7662V69.5231V69.6269L112.909 69.7001L114.214 71.0013L114.801 71.5868L114.874 71.6598H114.977H140.824L147.274 78.0938V81.4868L143.155 85.5959L143.082 85.6691V85.7729V91.924L140.232 94.7667H135.039H134.789V95.0167V96.3179V96.5679H135.039H140.876H140.979L141.052 96.4949L144.813 92.7438L144.886 92.6706V92.5668V86.4157L149.005 82.3066L149.079 82.2333V82.1296V77.451Z" fill="white" stroke="white" stroke-width="0.5"/>
    <path d="M142.858 56.9697H142.608V57.2197V59.2644V59.5144H142.858H144.908H145.158V59.2644V57.2197V56.9697H144.908H142.858Z" fill="white" stroke="white" stroke-width="0.5"/>
    <path d="M131.919 57.163H131.669V57.413V59.4577V59.7077H131.919H133.969H134.219V59.4577V57.413V57.163H133.969H131.919Z" fill="white" stroke="white" stroke-width="0.5"/>
    <path d="M124.161 52.9491H123.911V53.1991V55.2437V55.4937H124.161H126.211H126.461V55.2437V53.1991V52.9491H126.211H124.161Z" fill="white" stroke="white" stroke-width="0.5"/>
    <path d="M123.222 73.6934H122.972V73.9434V75.9881V76.2381H123.222H125.271H125.521V75.9881V73.9434V73.6934H125.271H123.222Z" fill="white" stroke="white" stroke-width="0.5"/>
    <path d="M115.248 77.9222H114.998V78.1722V80.2169V80.4669H115.248H117.298H117.548V80.2169V78.1722V77.9222H117.298H115.248Z" fill="white" stroke="white" stroke-width="0.5"/>
    <path d="M127.974 90.2126H127.724V90.4626V92.5073V92.7573H127.974H130.023H130.273V92.5073V90.4626V90.2126H130.023H127.974Z" fill="white" stroke="white" stroke-width="0.5"/>
    <path d="M107.729 90.3762H107.479V90.6262V92.6709V92.9209H107.729H109.778H110.028V92.6709V90.6262V90.3762H109.778H107.729Z" fill="white" stroke="white" stroke-width="0.5"/>
    <path d="M147.182 86.4876H146.932V86.7376V88.7823V89.0323H147.182H149.231H149.481V88.7823V86.7376V86.4876H149.231H147.182Z" fill="white" stroke="white" stroke-width="0.5"/>
    <path d="M135.039 94.4098H134.789V94.6598V96.7045V96.9545H135.039H137.089H137.339V96.7045V94.6598V94.4098H137.089H135.039Z" fill="white" stroke="white" stroke-width="0.5"/>
    <path d="M142.858 78.2698H142.608V78.5198V80.5645V80.8145H142.858H144.908H145.158V80.5645V78.5198V78.2698H144.908H142.858Z" fill="white" stroke="white" stroke-width="0.5"/>
</svg>
