<svg width="30" height="30" viewBox="0 0 30 30" fill="none"
    xmlns="http://www.w3.org/2000/svg">
    <path d="M30 0H0V10.0002H30V0Z" fill="#FF4B55"/>
    <path d="M30 19.9998H0V29.9999H30V19.9998Z" fill="#73AF00"/>
    <path d="M30 10.0002H0V20.0004H30V10.0002Z" fill="#FFE15A"/>
    <path d="M15.3332 11.2355L16.1571 13.7058L18.7612 13.726C19.0983 13.7287 19.2382 14.1589 18.9669 14.3592L16.872 15.9062L17.6575 18.3891C17.7592 18.7105 17.3932 18.9764 17.1189 18.7803L15.0004 17.266L12.8817 18.7803C12.6074 18.9764 12.2414 18.7105 12.3431 18.3891L13.1286 15.9062L11.0337 14.3592C10.7625 14.1589 10.9023 13.7287 11.2395 13.726L13.8435 13.7058L14.6674 11.2355C14.7742 10.9157 15.2265 10.9157 15.3332 11.2355Z" fill="#464655"/>
</svg>
