<svg width="169" height="169" viewBox="0 0 169 169" fill="none"
    xmlns="http://www.w3.org/2000/svg">
    <path fill-rule="evenodd" clip-rule="evenodd" d="M84.3741 158.748C125.45 158.748 158.748 125.45 158.748 84.3741C158.748 43.2984 125.45 10 84.3741 10C43.2984 10 10 43.2984 10 84.3741C10 125.45 43.2984 158.748 84.3741 158.748ZM84.3741 168.748C130.973 168.748 168.748 130.973 168.748 84.3741C168.748 37.7756 130.973 0 84.3741 0C37.7756 0 0 37.7756 0 84.3741C0 130.973 37.7756 168.748 84.3741 168.748Z" fill="white"/>
    <path d="M113.061 78.5337C117.049 80.8453 117.049 86.6045 113.061 88.9161L73.9119 111.605C69.9119 113.923 64.9033 111.037 64.9033 106.413L64.9033 61.0363C64.9033 56.4131 69.9119 53.5269 73.9119 55.8451L113.061 78.5337Z" fill="white"/>
</svg>
