<svg width="115" height="45" viewBox="0 0 115 45" fill="none"
    xmlns="http://www.w3.org/2000/svg">
    <g opacity="0.6" clip-path="url(#clip0)">
        <path d="M71.4769 3.27295V4.86607H69.9042V4.57656H53.4754V4.86607H51.9043V3.27295H53.4754V3.56246H69.9042V3.27295H71.4769Z" fill="#231F20"/>
        <path d="M74.0139 32.5772V40.147H46.7729L41.1546 34.45V17.1661H40.8691V15.573H42.4402V17.1661H42.1547V34.0297L47.1858 39.1329H73.0138V33.5913H66.068V33.9266H64.4953V32.3335H66.068V32.5772H74.0139Z" fill="#231F20"/>
        <path d="M71.4796 35.5853V37.1784H69.9068V36.8693H63.937L60.7061 33.5914H49.268L47.6211 31.9214V22.9973H52.3731V22.7029H53.9458V24.296H52.3731V24.0114H48.6212V31.501L49.6826 32.5773H61.119L64.3515 35.8552H69.9068V35.5853H71.4796Z" fill="#231F20"/>
        <path d="M48.6194 7.8544V16.4432H69.263V24.0113H57.5185L54.2876 20.7351H49.1904V21.023H47.6193V19.4299H49.1904V19.721H54.7021L57.933 22.9972H68.2629V17.4557H47.6193V6.8403H73.0133V1.30036H51.5857L48.3548 4.57656H45.4594V9.50477H45.7449V11.0979H44.1738V9.50477H44.4593V3.56246H47.9403L50.1727 1.30036L51.1728 0.286255H74.0134V7.8544H48.6194Z" fill="#231F20"/>
        <path d="M66.6912 19.4299V21.023H65.1184V20.7335H59.868V21.023H58.2969V19.4299H59.868V19.7194H65.1184V19.4299H66.6912Z" fill="#231F20"/>
        <path d="M60.2978 35.5378V37.1309H58.7267V36.8692H48.0242L44.432 33.225V15.2557L41.1543 11.9321V0.286239H46.0466V0H47.6194V1.59312H46.0466V1.30034H42.1544V11.5133L45.4321 14.837V32.8046L48.4388 35.8551H58.7267V35.5378H60.2978Z" fill="#231F20"/>
        <path d="M8.13449 19.3126H8.09375V19.2712L8.13449 19.3126Z" fill="#231F20"/>
        <path d="M28.0911 33.5488V33.5739H28.0664L28.0911 33.5488Z" fill="#231F20"/>
        <path d="M8.13449 19.3126H8.09375V19.2712L8.13449 19.3126Z" fill="#231F20"/>
        <path d="M29.0911 32.5347V32.5597H29.0664L29.0911 32.5347Z" fill="#231F20"/>
        <path d="M37.1613 7.23616L36.4548 7.95257L32.5141 11.9468L31.8076 12.6649L31.0995 11.9468L27.0636 7.85444H24.1021V8.14067H22.531V6.54755H24.1021V6.84033H27.4782L28.4783 7.85444L31.8076 11.2304L35.7482 7.23616L29.8978 1.30365H7.29101L2.62933 6.02905V18.4109L7.1539 22.9973H9.7509V22.7258H11.322V24.3189H9.7509V24.0114H6.73935L1.63086 18.8313V5.60869L6.87646 0.289551H30.3123L37.1613 7.23616Z" fill="#231F20"/>
        <path d="M32.4908 22.9973V24.5904H30.9197V23.6793L28.0179 20.7384H17.4363V21.023H15.8652V19.4299H17.4363V19.7243H28.4324L31.6601 22.9973H32.4908Z" fill="#231F20"/>
        <path d="M35.4977 22.1647V25.8105L32.2829 29.0704V33.9446L29.3988 36.8692H26.4953V37.1701H24.9242V35.577H26.4953V35.8551H28.9858L31.2828 33.5259V28.65L34.4976 25.3902V22.585L29.4391 17.4556H9.54387L9.09383 17.0009L8.09375 15.9852V8.38269L8.61476 7.85437L9.09383 7.36859L9.61485 6.84027H18.4349L21.6449 3.58533H28.8745L31.6489 6.39701H32.491V7.99013H30.9199V7.09216L28.4616 4.59943H22.0594L19.8496 6.84027L18.8495 7.85437H10.0278L9.09383 8.80142V15.5665L9.95842 16.4432H29.8536L35.4977 22.1647Z" fill="#231F20"/>
        <path d="M25.1804 33.5701L21.9285 36.8692H7.69505L4.89158 34.0248H3.98828V32.4317H5.55938V33.2692L8.1096 35.8551H21.514L23.7658 33.5701L24.7658 32.556H27.6532L28.0887 32.1144V25.5604L26.5628 24.0114H14.7473L11.5179 20.7385H8.12734L7.12726 19.7244L5.86263 18.4436L4.86255 17.4295V7.04971L8.27897 3.58541H16.4426V3.26318H18.0153V4.85794H16.4426V4.57661H8.7161L5.86263 7.47007V17.0092L8.09508 19.2713V19.3073H8.13057L8.54189 19.7244H11.9309L12.931 20.7385L15.1618 22.9973H26.9773L27.9774 24.0114L28.0887 24.1259L29.0888 25.14V32.5348L28.0677 33.5701H25.1804Z" fill="#231F20"/>
        <path d="M35.8062 29.4025V30.9956H35.4981V35.4887L34.4981 36.5045L31.1268 39.9213L30.9042 40.1471H6.29246L0 33.7664L0.706511 33.0483L4.68265 29.0165L5.39077 28.3L6.09729 29.0165L9.60564 32.574H19.5081V32.3058H21.0792V33.8989H19.5081V33.5881H9.19109L5.39077 29.7345L1.41463 33.7664L6.7054 39.133H30.4897L34.4981 35.07V30.9956H34.2351V29.4025H35.8062Z" fill="#231F20"/>
        <path d="M85.9744 19.3223H85.9336V19.281L85.9744 19.3223Z" fill="#231F20"/>
        <path d="M113.62 29.4172V31.0103H113.334V35.4985L112.334 36.5126L108.965 39.9295L108.742 40.1552H84.1304L77.8379 33.7746L82.5205 29.0263L83.227 28.3082L83.9352 29.0263L87.4419 32.5822H97.346V32.3139H98.9171V33.9071H97.346V33.5963H87.0274L83.227 29.7427L79.2509 33.7746L84.5433 39.1411H108.328L112.334 35.0782V31.0103H112.049V29.4172H113.62Z" fill="#231F20"/>
        <path d="M105.931 33.557V33.5821H105.906L105.931 33.557Z" fill="#231F20"/>
        <path d="M85.9744 19.3223H85.9336V19.281L85.9744 19.3223Z" fill="#231F20"/>
        <path d="M106.931 32.5428V32.5679H106.906L106.931 32.5428Z" fill="#231F20"/>
        <path d="M113.336 22.1729V25.8187L110.121 29.0786V33.9544L107.239 36.8773H104.335V37.1783H102.764V35.5852H104.335V35.8632H106.824L109.121 33.5341V28.6598L112.336 25.4V22.5932L107.279 17.4655H87.3837L86.9337 17.0091L85.9336 15.995V8.39087L86.453 7.86419L86.9337 7.37676L87.4531 6.85009H96.2748L99.4847 3.59351H106.714L109.487 6.40519H110.331V7.99995H108.758V7.10197L106.3 4.60761H99.8977L96.6877 7.86419H87.8676L86.9337 8.81123V15.5746L87.7983 16.4514H107.693L113.336 22.1729Z" fill="#231F20"/>
        <path d="M115.001 7.24433L114.294 7.96238L110.354 11.9566L109.647 12.6731L108.939 11.9566L104.903 7.86424H101.942V8.15048H100.37V6.55736H101.942V6.85014H105.318L109.647 11.2386L113.586 7.24433L107.736 1.31183H85.1289L80.4688 6.03722V18.4191L84.9918 23.0071H87.5904V22.7339H89.1615V24.3271H87.5904V24.0196H84.5772L79.4688 18.8395V5.6185L84.7143 0.297729H108.15L115.001 7.24433Z" fill="#231F20"/>
        <path d="M106.926 25.1481V32.5429L105.905 33.5783H103.018L99.7644 36.8774H85.5326L82.7275 34.033H81.8242V32.4399H83.3969V33.2773L85.9471 35.8633H99.3499L101.603 33.5783L102.603 32.5642H105.491L105.926 32.1225V25.5685L104.399 24.0195H92.5848L89.3555 20.7466H85.9633L84.9632 19.7325L83.7002 18.4518L82.7001 17.4377V7.05784L86.1149 3.59354H94.4237V3.27295H95.9947V4.86607H94.4237V4.58474H86.552L83.7002 7.47821V17.0173L85.9326 19.2811V19.317H85.9681L86.3778 19.7325H89.7684L90.7685 20.7466L92.9977 23.0071H104.813L106.926 25.1481Z" fill="#231F20"/>
        <path d="M110.33 23.0055V24.5986H108.758V23.6892L105.857 20.7466H95.2742V21.0312H93.7031V19.4381H95.2742V19.7325H106.272L109.498 23.0055H110.33Z" fill="#231F20"/>
        <path d="M43.4614 44.2231C43.4614 44.7972 42.8871 45 42.3952 45C41.7048 45 41.287 44.6729 41.2773 44.1217V44.0841H41.8032V44.1201C41.8032 44.529 42.1935 44.5911 42.4258 44.5911C42.7484 44.5911 42.9388 44.4717 42.9388 44.264C42.9421 44.2053 42.9248 44.1473 42.89 44.1003C42.8551 44.0532 42.805 44.0203 42.7484 44.0072C42.6339 43.968 42.4952 43.9352 42.3194 43.8943C42.2193 43.8715 42.1064 43.8453 41.9774 43.8126C41.4806 43.6915 41.3757 43.402 41.3757 43.1796C41.3757 42.6774 41.8871 42.4501 42.3597 42.4501C42.9759 42.4501 43.3904 42.7674 43.3904 43.2385V43.2761H42.8678V43.2417C42.85 42.9866 42.6742 42.8573 42.3452 42.8573C42.271 42.8573 41.9048 42.8704 41.9048 43.1305C41.9048 43.263 41.9968 43.3513 42.1871 43.3987L42.2871 43.4233C42.4645 43.4658 42.8307 43.5525 42.9323 43.5869C43.0785 43.6164 43.2105 43.6955 43.3066 43.8111C43.4028 43.9267 43.4573 44.072 43.4614 44.2231V44.2231Z" fill="#231F20"/>
        <path d="M44.1719 42.5105H46.3414V42.9407H45.5171V44.9444H44.9913V42.9407H44.1719V42.5105Z" fill="#231F20"/>
        <path d="M105.374 44.5142H106.813V44.9444H104.85V42.5105H106.787V42.9407H105.374V43.487H106.682V43.8959H105.374V44.5142Z" fill="#231F20"/>
        <path d="M113.658 44.2231C113.658 44.7972 113.082 45 112.59 45C111.9 45 111.484 44.6729 111.473 44.1217V44.0841H111.997V44.1201C111.997 44.529 112.387 44.5911 112.62 44.5911C112.942 44.5911 113.132 44.4717 113.132 44.264C113.136 44.2052 113.119 44.147 113.084 44.0999C113.049 44.0529 112.999 44.02 112.942 44.0072C112.828 43.968 112.689 43.9352 112.513 43.8943C112.413 43.8715 112.3 43.8453 112.173 43.8126C111.674 43.6915 111.571 43.402 111.571 43.1796C111.571 42.6774 112.081 42.4501 112.555 42.4501C113.171 42.4501 113.584 42.7674 113.584 43.2385V43.2761H113.061V43.2417C113.044 42.9866 112.866 42.8573 112.537 42.8573C112.465 42.8573 112.099 42.8704 112.099 43.1305C112.099 43.263 112.19 43.3513 112.379 43.3987L112.479 43.4233C112.657 43.4658 113.024 43.5525 113.124 43.5869C113.271 43.6157 113.404 43.6945 113.501 43.8101C113.598 43.9257 113.654 44.0714 113.658 44.2231V44.2231Z" fill="#231F20"/>
        <path d="M101.82 42.5105H103.99V42.9407H103.166V44.9444H102.641V42.9407H101.82V42.5105Z" fill="#231F20"/>
        <path d="M90.8849 42.5105H91.4801L90.4784 43.9924V44.9444H89.9542V43.9924L88.9492 42.5105H89.5622L90.2284 43.5393L90.8849 42.5105Z" fill="#231F20"/>
        <path d="M97.8631 42.5105H98.4583L97.4566 43.9924V44.9444H96.9323V43.9924L95.9258 42.5105H96.5387L97.2065 43.5393L97.8631 42.5105Z" fill="#231F20"/>
        <path d="M101.268 44.2231C101.268 44.7972 100.694 45 100.202 45C99.5131 45 99.0937 44.6729 99.084 44.1217V44.0841H99.6098V44.1201C99.6098 44.529 100 44.5911 100.231 44.5911C100.553 44.5911 100.744 44.4717 100.744 44.264C100.747 44.2053 100.73 44.1473 100.695 44.1003C100.66 44.0532 100.61 44.0203 100.553 44.0072C100.439 43.968 100.3 43.9352 100.124 43.8943C100.024 43.8715 99.9115 43.8453 99.784 43.8126C99.2872 43.6915 99.1824 43.402 99.1824 43.1796C99.1824 42.6774 99.6921 42.4501 100.165 42.4501C100.783 42.4501 101.195 42.7674 101.195 43.2385V43.2761H100.674V43.2417C100.655 42.9866 100.479 42.8573 100.15 42.8573C100.078 42.8573 99.7115 42.8704 99.7115 43.1305C99.7115 43.263 99.8034 43.3513 99.9921 43.3987L100.092 43.4233C100.268 43.4658 100.637 43.5525 100.737 43.5869C100.884 43.6161 101.016 43.695 101.113 43.8107C101.209 43.9263 101.264 44.0717 101.268 44.2231V44.2231Z" fill="#231F20"/>
        <path d="M109.831 42.5105H110.523V44.9444H110.02V43.2564L109.354 44.9444H108.931L108.921 44.9215L108.265 43.2564V44.9444H107.762V42.5105H108.46L108.47 42.535L109.155 44.3048L109.831 42.5105Z" fill="#231F20"/>
        <path d="M95.3009 44.2231C95.3009 44.7972 94.725 45 94.2331 45C93.5443 45 93.1249 44.6729 93.1152 44.1217V44.0841H93.6411V44.1201C93.6411 44.529 94.0298 44.5911 94.2621 44.5911C94.5847 44.5911 94.7751 44.4717 94.7751 44.264C94.7784 44.2053 94.7611 44.1473 94.7263 44.1003C94.6914 44.0532 94.6413 44.0203 94.5847 44.0072C94.4702 43.968 94.3315 43.9352 94.1573 43.8943C94.0556 43.8715 93.9427 43.8453 93.8137 43.8126C93.3185 43.6915 93.2136 43.402 93.2136 43.1796C93.2136 42.6774 93.7233 42.4501 94.1976 42.4501C94.8121 42.4501 95.2267 42.7674 95.2267 43.2385V43.2761H94.7041V43.2417C94.6863 42.9866 94.5105 42.8573 94.1798 42.8573C94.1073 42.8573 93.7395 42.8704 93.7395 43.1305C93.7395 43.263 93.833 43.3513 94.0218 43.3987L94.1218 43.4233C94.2992 43.4658 94.6654 43.5525 94.767 43.5869C94.9141 43.6155 95.0472 43.6941 95.1443 43.8098C95.2414 43.9255 95.2966 44.0713 95.3009 44.2231V44.2231Z" fill="#231F20"/>
        <path d="M87.0512 43.6294H88.2336V44.9379H87.8787L87.819 44.6942C87.72 44.7956 87.601 44.8746 87.4698 44.9262C87.3386 44.9778 87.1982 45.0007 87.0577 44.9935C86.8894 45.003 86.721 44.9767 86.5633 44.9164C86.4056 44.8561 86.262 44.7631 86.1418 44.6433C86.0215 44.5235 85.9273 44.3796 85.865 44.2208C85.8027 44.062 85.7738 43.8918 85.7801 43.721C85.7801 42.9718 86.306 42.4501 87.0577 42.4501C87.6868 42.4501 88.1368 42.7772 88.2045 43.2875V43.3268H87.69V43.2973C87.6448 42.9702 87.3222 42.8573 87.0577 42.8573C86.5028 42.8573 86.306 43.3235 86.306 43.721C86.306 44.1184 86.5028 44.5846 87.0577 44.5846H87.0738C87.4819 44.5846 87.719 44.3752 87.7464 44.0088H87.0593L87.0512 43.6294Z" fill="#231F20"/>
        <path d="M84.6696 44.2868C84.6807 44.1788 84.6562 44.0701 84.5999 43.9778C84.5435 43.8854 84.4586 43.8146 84.3583 43.7765C84.4693 43.7259 84.5626 43.6424 84.6259 43.537C84.6893 43.4316 84.7197 43.3093 84.7132 43.186C84.7132 42.7509 84.3906 42.5105 83.8196 42.5105H82.5469V44.9444H83.0711V43.9728H83.7034C84.0712 43.9728 84.1873 44.1102 84.1873 44.5616C84.1753 44.689 84.2011 44.8172 84.2615 44.9296L84.2728 44.9444H84.868L84.8035 44.8822C84.718 44.802 84.6696 44.5796 84.6696 44.2868ZM83.7792 43.5851H83.0711V42.921H83.7728C84.0647 42.921 84.1873 43.0176 84.1873 43.2482C84.1873 43.4788 84.0502 43.5851 83.7792 43.5851V43.5851Z" fill="#231F20"/>
        <path d="M61.3228 42.5105H61.847V44.0578C61.847 44.6565 61.447 45 60.7485 45C60.0501 45 59.6484 44.6565 59.6484 44.0578V42.5105H60.1743V43.9237C60.1743 44.277 60.2178 44.578 60.7485 44.578C61.2792 44.578 61.3228 44.2836 61.3228 43.9237V42.5105Z" fill="#231F20"/>
        <path d="M56.6465 42.5105H58.8176V42.9407H57.9934V44.9444H57.4675V42.9407H56.6465V42.5105Z" fill="#231F20"/>
        <path d="M49.3239 44.2868C49.335 44.1788 49.3105 44.0701 49.2542 43.9778C49.1978 43.8854 49.1129 43.8146 49.0126 43.7765C49.1237 43.726 49.2171 43.6426 49.2805 43.5372C49.3439 43.4317 49.3742 43.3093 49.3675 43.186C49.3675 42.7509 49.0449 42.5105 48.4755 42.5105H47.2012V44.9444H47.727V43.9728H48.3593C48.7271 43.9728 48.8432 44.1102 48.8432 44.5616C48.831 44.6892 48.8574 44.8176 48.9191 44.9296L48.9287 44.9444H49.5207L49.4562 44.8822C49.3739 44.802 49.3239 44.5796 49.3239 44.2868ZM48.4368 43.5851H47.727V42.921H48.4287C48.719 42.921 48.8432 43.0176 48.8432 43.2482C48.8432 43.4788 48.7142 43.5851 48.4368 43.5851V43.5851Z" fill="#231F20"/>
        <path d="M52.034 42.5105H52.5599V44.0578C52.5599 44.6565 52.1599 45 51.4598 45C50.7597 45 50.3613 44.6565 50.3613 44.0578V42.5105H50.8856V43.9237C50.8856 44.277 50.9291 44.578 51.4598 44.578C51.9905 44.578 52.034 44.2836 52.034 43.9237V42.5105Z" fill="#231F20"/>
        <path d="M55.4097 43.9729H55.9226V44.0121C55.8839 44.6026 55.4258 44.9935 54.7838 44.9935C54.6155 45.0029 54.447 44.9767 54.2892 44.9164C54.1314 44.8561 53.9878 44.7631 53.8674 44.6434C53.747 44.5236 53.6526 44.3798 53.5902 44.2209C53.5277 44.0621 53.4986 43.8918 53.5047 43.721C53.5047 42.9718 54.0305 42.4501 54.7838 42.4501C55.4194 42.4501 55.8646 42.7772 55.9129 43.2875V43.3268H55.3919V43.3006C55.3596 43.1646 55.28 43.0449 55.1677 42.9635C55.0554 42.8821 54.918 42.8444 54.7806 42.8573C54.2241 42.8573 54.0273 43.3235 54.0273 43.721C54.0273 44.1184 54.2241 44.5846 54.7806 44.5846C54.9401 44.5903 55.0953 44.5318 55.2123 44.4217C55.3293 44.3117 55.3985 44.1591 55.4048 43.9974L55.4097 43.9729Z" fill="#231F20"/>
        <path d="M65.0544 44.2868C65.0655 44.1788 65.041 44.0701 64.9846 43.9778C64.9283 43.8854 64.8433 43.8146 64.7431 43.7765C64.8541 43.7259 64.9473 43.6424 65.0107 43.537C65.074 43.4316 65.1044 43.3093 65.0979 43.186C65.0979 42.7509 64.7753 42.5105 64.2059 42.5105H62.9316V44.9444H63.4575V43.9728H64.0898C64.4576 43.9728 64.5737 44.1102 64.5737 44.5616C64.5614 44.6892 64.5879 44.8176 64.6495 44.9296L64.6608 44.9444H65.2528L65.1899 44.8822C65.1028 44.802 65.0544 44.5796 65.0544 44.2868ZM64.1656 43.5851H63.4575V42.921H64.1575C64.4479 42.921 64.5721 43.0176 64.5721 43.2482C64.5721 43.4788 64.435 43.5851 64.1656 43.5851V43.5851Z" fill="#231F20"/>
        <path d="M66.645 44.5142H68.0822V44.9444H66.1191V42.5105H68.058V42.9407H66.645V43.487H67.9516V43.8959H66.645V44.5142Z" fill="#231F20"/>
        <path d="M70.1472 42.5105H69.0391V44.9444H70.1488C70.8876 44.9444 71.3296 44.4896 71.3296 43.7274C71.3296 42.9652 70.886 42.5105 70.1472 42.5105ZM69.973 44.5354H69.5633V42.921H69.973C70.7037 42.921 70.8021 43.33 70.8021 43.7274C70.8021 44.1249 70.7037 44.5354 69.973 44.5354Z" fill="#231F20"/>
        <path d="M73.9829 44.5142H75.4201V44.9444H73.457V42.5105H75.3943V42.9407H73.9829V43.487H75.291V43.8959H73.9829V44.5142Z" fill="#231F20"/>
        <path d="M78.0266 42.5105H78.5298V44.9444H77.9959L76.8604 43.2727V44.9444H76.3555V42.5105H76.891L76.9007 42.5269L78.0266 44.1821V42.5105Z" fill="#231F20"/>
        <path d="M80.1531 44.5142H81.5904V44.9444H79.6289V42.5105H81.5662V42.9407H80.1531V43.487H81.4597V43.8959H80.1531V44.5142Z" fill="#231F20"/>
    </g>
    <defs>
        <clipPath id="clip0">
            <rect width="115" height="45" fill="white"/>
        </clipPath>
    </defs>
</svg>
