<svg width="73" height="25" viewBox="0 0 73 25" fill="none"
    xmlns="http://www.w3.org/2000/svg">
    <path d="M46.7093 20.2822V24.9946H29.5186L25.9727 21.4474V9.69556H26.6038V21.1859L29.7792 24.3633H46.0782V20.9135H40.7137V20.2822H46.7093Z" fill="#F5F5F5"/>
    <path d="M30.6879 4.89009V10.2366H43.716V14.9491H36.3049L34.2655 12.909H30.0568V12.2776H34.5269L36.5663 14.3177H43.0849V10.8679H30.0568V4.25875H46.0826V0.808949H32.5605L30.5211 2.84907H28.6936V3.78435L28.6657 3.81231L28.6936 3.84026V6.85444H28.0625V2.21773H30.2597L31.6689 0.808949L32.3 0.177612H46.7138V4.89009H30.6879Z" fill="#F5F5F5"/>
    <path d="M42.082 12.2776H36.7852V12.9089H42.082V12.2776Z" fill="#F5F5F5"/>
    <path d="M45.1035 22.3224V22.9538H40.344L38.3046 20.9137H31.0864L30.0469 19.8738V14.318H34.0364V14.9493H30.678V19.6122L31.3488 20.2823H38.566L40.6054 22.3224H45.1035Z" fill="#F5F5F5"/>
    <path d="M28.6881 3.7843V3.84022L28.6602 3.81226L28.6881 3.7843Z" fill="#F5F5F5"/>
    <path d="M45.0195 2.21802H32.7578V2.84935H45.0195V2.21802Z" fill="#F5F5F5"/>
    <path d="M33.7496 2.03772H32.7578V3.02982H33.7496V2.03772Z" fill="#F5F5F5"/>
    <path d="M45.1128 2.03772H44.1211V3.02982H45.1128V2.03772Z" fill="#F5F5F5"/>
    <path d="M45.1128 22.1547H44.1211V23.1468H45.1128V22.1547Z" fill="#F5F5F5"/>
    <path d="M26.7828 9.69556H25.791V10.6877H26.7828V9.69556Z" fill="#F5F5F5"/>
    <path d="M34.0464 14.1349H33.0547V15.127H34.0464V14.1349Z" fill="#F5F5F5"/>
    <path d="M31.0386 12.0973H30.0469V13.0894H31.0386V12.0973Z" fill="#F5F5F5"/>
    <path d="M28.9312 5.91748H27.9395V6.90958H28.9312V5.91748Z" fill="#F5F5F5"/>
    <path d="M42.0914 12.0973H41.0996V13.0894H42.0914V12.0973Z" fill="#F5F5F5"/>
    <path d="M37.7769 12.0973H36.7852V13.0894H37.7769V12.0973Z" fill="#F5F5F5"/>
    <path d="M38.054 22.3222V22.9535H30.3084L28.0409 20.6852V9.49794L25.9727 7.42896V0.177612H30.0524V0.808949H26.6038V7.16831L28.672 9.23729V20.4237L30.5699 22.3222H38.054Z" fill="#F5F5F5"/>
    <path d="M30.0503 0H29.0586V0.9921H30.0503V0Z" fill="#F5F5F5"/>
    <path d="M38.0542 22.1249H37.0625V23.117H38.0542V22.1249Z" fill="#F5F5F5"/>
    <path d="M41.6968 20.1296H40.7051V21.1217H41.6968V20.1296Z" fill="#F5F5F5"/>
    <path d="M20.1709 14.5083L19.7246 14.9547L17.6816 12.911H10.0117V12.2797H17.943L20.1709 14.5083Z" fill="#F5F5F5"/>
    <path d="M18.3541 15.6514V20.2548L17.7095 20.8996H15.8874L13.8345 22.9533H4.85278L2.94141 21.0412L3.3877 20.5948L5.11425 22.322H13.573L14.9948 20.8996L15.6259 20.2683H17.448L17.723 19.9932V15.913L16.7592 14.9489H9.30305L7.26545 12.9105H5.12507L4.49395 12.2792L3.69604 11.4819L3.06492 10.8506V4.3884L5.22063 2.23193H11.365V2.84884H5.49652L3.69604 4.64995V10.589L5.10523 11.9978V12.0204H5.12777L5.38653 12.2792H7.52601L8.15712 12.9105L9.56451 14.3175H17.0207L17.6518 14.9489L17.723 15.0201L18.3541 15.6514Z" fill="#F5F5F5"/>
    <path d="M5.13131 12.0165H5.11328V11.9984L5.13131 12.0165Z" fill="#F5F5F5"/>
    <path d="M23.4509 4.50495L23.0046 4.9514L20.518 7.43796L20.0717 7.8844L19.6254 7.43796L17.0784 4.89007H14.2186V4.25873H17.3399L17.971 4.89007L20.0717 6.99151L22.5583 4.50495L18.8663 0.811634H4.59946L1.65846 3.75366V11.4623L4.5129 14.3177H7.14195V14.9491H4.25144L1.02734 11.7238V3.49211L4.338 0.180298H19.1277L23.4509 4.50495Z" fill="#F5F5F5"/>
    <path d="M22.4019 18.3122V22.0948L21.7708 22.7262L19.6439 24.8538L19.5033 24.9945H3.97152L0 21.0216L0.446289 20.5751L2.95542 18.0651L3.40171 17.6187L3.848 18.0651L6.06141 20.2793H12.9054V20.9106H5.79995L3.40171 18.5115L0.892578 21.0216L4.23208 24.3631H19.2418L21.7708 21.8333V18.3122H22.4019Z" fill="#F5F5F5"/>
    <path d="M17.7257 20.8864V20.8972H17.7148L17.7257 20.8864Z" fill="#F5F5F5"/>
    <path d="M5.13131 12.0165H5.11328V11.9984L5.13131 12.0165Z" fill="#F5F5F5"/>
    <path d="M18.3565 20.2549V20.2657H18.3457L18.3565 20.2549Z" fill="#F5F5F5"/>
    <path d="M22.4067 13.7989V16.069L20.3782 18.0983V21.1332L18.5587 22.9533H15.735V22.322H18.2973L19.747 20.8717V17.8368L21.7756 15.8075V14.0605L18.584 10.8677H6.0284L5.7444 10.5836L5.11328 9.95228V5.21815L5.44146 4.88986L5.7444 4.58682L6.07258 4.25852H11.639L13.6649 2.23193H18.2279L20.1762 4.18096L19.7299 4.6274L17.9664 2.86327H13.9264L12.5316 4.25852L11.9005 4.88986H6.33404L5.7444 5.47971V9.69072L6.28986 10.2364H18.8455L22.4067 13.7989Z" fill="#F5F5F5"/>
    <path d="M20.5093 3.98279H19.5176V4.97489H20.5093V3.98279Z" fill="#F5F5F5"/>
    <path d="M15.2105 4.07678H14.2188V5.06888H15.2105V4.07678Z" fill="#F5F5F5"/>
    <path d="M11.3628 2.03284H10.3711V3.02494H11.3628V2.03284Z" fill="#F5F5F5"/>
    <path d="M11.0035 12.0973H10.0117V13.0894H11.0035V12.0973Z" fill="#F5F5F5"/>
    <path d="M7.14605 14.1489H6.1543V15.141H7.14605V14.1489Z" fill="#F5F5F5"/>
    <path d="M13.3023 20.1122H12.3105V21.1043H13.3023V20.1122Z" fill="#F5F5F5"/>
    <path d="M3.51324 20.1919H2.52148V21.184H3.51324V20.1919Z" fill="#F5F5F5"/>
    <path d="M22.5914 18.3051H21.5996V19.2972H22.5914V18.3051Z" fill="#F5F5F5"/>
    <path d="M16.7203 22.1499H15.7285V23.142H16.7203V22.1499Z" fill="#F5F5F5"/>
    <path d="M20.5093 14.318H19.5176V15.3101H20.5093V14.318Z" fill="#F5F5F5"/>
    <path d="M69.292 14.5139L68.8457 14.9603L66.8027 12.9166H59.1328V12.2853H67.0641L69.292 14.5139Z" fill="#F5F5F5"/>
    <path d="M67.4772 15.6571V20.2604L66.8326 20.9053H65.0104L62.9575 22.9589H53.9758L52.0645 21.0469L52.5107 20.6004L54.2373 22.3276H62.696L64.1179 20.9053L64.749 20.2739H66.5711L66.8461 19.9988V15.9186L65.8823 14.9545H58.4261L56.3885 12.9162H54.2481L53.617 12.2848L52.8191 11.4875L52.188 10.8562V4.39401L54.3437 2.23755H60.488V2.85445H54.6196L52.8191 4.65557V10.5946L54.2283 12.0034V12.026H54.2508L54.5096 12.2848H56.6491L57.2802 12.9162L58.6876 14.3231H66.1437L66.7749 14.9545L66.8461 15.0257L67.4772 15.6571Z" fill="#F5F5F5"/>
    <path d="M54.2524 12.0213H54.2344V12.0033L54.2524 12.0213Z" fill="#F5F5F5"/>
    <path d="M72.5739 4.51044L72.1276 4.95689L69.641 7.44345L69.1947 7.8899L68.7485 7.44345L66.2015 4.89556H63.3416V4.26422H66.4629L67.094 4.89556L69.1947 6.99701L71.6813 4.51044L67.9893 0.817127H53.7225L50.7815 3.75915V11.4678L53.6359 14.3232H56.265V14.9546H53.3745L50.1504 11.7293V3.4976L53.461 0.185791H68.2508L72.5739 4.51044Z" fill="#F5F5F5"/>
    <path d="M71.5249 18.3177V22.1003L70.8938 22.7317L68.767 24.8593L68.6263 25H53.0946L49.123 21.027L49.5693 20.5806L52.0785 18.0706L52.5248 17.6241L52.971 18.0706L55.1845 20.2848H62.0285V20.9161H54.923L52.5248 18.517L50.0156 21.027L53.3551 24.3686H68.3649L70.8938 21.8388V18.3177H71.5249Z" fill="#F5F5F5"/>
    <path d="M66.8468 20.892V20.9028H66.8359L66.8468 20.892Z" fill="#F5F5F5"/>
    <path d="M54.2524 12.0213H54.2344V12.0033L54.2524 12.0213Z" fill="#F5F5F5"/>
    <path d="M67.4796 20.2605V20.2713H67.4688L67.4796 20.2605Z" fill="#F5F5F5"/>
    <path d="M71.5278 13.8045V16.0746L69.4993 18.1039V21.1389L67.6798 22.9589H64.856V22.3276H67.4184L68.8681 20.8773V17.8424L70.8967 15.8131V14.0661L67.7051 10.8733H55.1495L54.8655 10.5892L54.2344 9.95789V5.22377L54.5626 4.89547L54.8655 4.59243L55.1937 4.26414H60.7601L62.786 2.23755H67.349L69.2973 4.18657L68.851 4.63302L67.0875 2.86889H63.0475L61.6527 4.26414L61.0216 4.89547H55.4551L54.8655 5.48532V9.69634L55.411 10.242H67.9665L71.5278 13.8045Z" fill="#F5F5F5"/>
    <path d="M69.6304 3.98828H68.6387V4.98038H69.6304V3.98828Z" fill="#F5F5F5"/>
    <path d="M64.3316 4.08228H63.3398V5.07437H64.3316V4.08228Z" fill="#F5F5F5"/>
    <path d="M60.5757 2.03772H59.584V3.02982H60.5757V2.03772Z" fill="#F5F5F5"/>
    <path d="M60.1246 12.1029H59.1328V13.095H60.1246V12.1029Z" fill="#F5F5F5"/>
    <path d="M56.2671 14.1544H55.2754V15.1465H56.2671V14.1544Z" fill="#F5F5F5"/>
    <path d="M62.4234 20.1178H61.4316V21.1099H62.4234V20.1178Z" fill="#F5F5F5"/>
    <path d="M52.6343 20.1971H51.6426V21.1892H52.6343V20.1971Z" fill="#F5F5F5"/>
    <path d="M71.7144 18.3105H70.7227V19.3026H71.7144V18.3105Z" fill="#F5F5F5"/>
    <path d="M65.8414 22.1547H64.8496V23.1468H65.8414V22.1547Z" fill="#F5F5F5"/>
    <path d="M69.6304 14.323H68.6387V15.3151H69.6304V14.323Z" fill="#F5F5F5"/>
</svg>
